<svg xmlns="http://www.w3.org/2000/svg" xmlns:xlink="http://www.w3.org/1999/xlink" width="768" zoomAndPan="magnify" viewBox="0 0 576 359.999987" height="480" preserveAspectRatio="xMidYMid meet" version="1.0"><defs><clipPath id="b50866c948"><path d="M 373 4 L 567 4 L 567 243 L 373 243 Z M 373 4 " clip-rule="nonzero"/></clipPath><clipPath id="58a508f3a8"><path d="M 383.011719 0 L 586.835938 217.050781 L 525.601562 274.554688 L 321.78125 57.5 Z M 383.011719 0 " clip-rule="nonzero"/></clipPath><clipPath id="10042d4924"><path d="M 383.011719 0 L 586.835938 217.050781 L 525.601562 274.554688 L 321.78125 57.5 Z M 383.011719 0 " clip-rule="nonzero"/></clipPath><clipPath id="67fa4bdd54"><path d="M 386 59 L 387 59 L 387 61 L 386 61 Z M 386 59 " clip-rule="nonzero"/></clipPath><clipPath id="07da3034d6"><path d="M 383.011719 0 L 586.835938 217.050781 L 525.601562 274.554688 L 321.78125 57.5 Z M 383.011719 0 " clip-rule="nonzero"/></clipPath><clipPath id="471fb4f4e5"><path d="M 383.011719 0 L 586.835938 217.050781 L 525.601562 274.554688 L 321.78125 57.5 Z M 383.011719 0 " clip-rule="nonzero"/></clipPath></defs><rect x="-57.6" width="691.2" fill="#ffffff" y="-35.999999" height="431.999984" fill-opacity="1"/><rect x="-57.6" width="691.2" fill="#ffffff" y="-35.999999" height="431.999984" fill-opacity="1"/><g clip-path="url(#b50866c948)"><g clip-path="url(#58a508f3a8)"><g clip-path="url(#10042d4924)"><path fill="#000000" d="M 384.464844 5.121094 C 384.207031 5.152344 384.023438 5.292969 383.914062 5.53125 C 383.007812 5.566406 382.457031 4.207031 381.382812 4.898438 C 378.554688 4.804688 377.589844 6.753906 376.933594 9.003906 C 375.113281 15.3125 374.355469 21.785156 373.992188 28.3125 C 372.71875 51.679688 376.386719 74.238281 384.09375 96.375 C 397.535156 135.027344 422.265625 164.730469 455.269531 187.988281 C 470.570312 198.773438 487.46875 206.6875 504.734375 213.8125 C 514.882812 218 525.246094 221.5625 535.53125 225.378906 C 535.960938 225.355469 536.382812 225.320312 536.8125 225.296875 C 537.164062 225.636719 537.652344 225.914062 537.796875 226.324219 C 537.796875 226.324219 537.796875 226.324219 537.796875 226.339844 C 537.902344 226.664062 537.4375 226.8125 537.066406 226.675781 C 532.949219 227.929688 528.703125 228.269531 524.4375 228.386719 C 521.519531 228.464844 518.695312 228.757812 515.992188 229.90625 C 509.707031 230.03125 505.96875 233.34375 505.367188 239.050781 C 516.664062 244.492188 528.304688 243.34375 540.050781 241.210938 C 544.421875 240.417969 548.828125 239.925781 553.230469 239.363281 C 563.769531 238.023438 562.167969 237.621094 565.585938 229.679688 C 566.351562 227.902344 566.691406 225.976562 566.832031 224.03125 C 566.886719 223.316406 566.867188 222.652344 566.347656 222.097656 C 567.105469 220.023438 565.851562 218.660156 564.566406 217.386719 C 560.746094 213.605469 556.886719 209.882812 553.03125 206.132812 C 552.714844 204.890625 551.777344 204.167969 550.800781 203.480469 C 550.527344 202.222656 549.566406 201.507812 548.652344 200.761719 C 548.605469 199.839844 547.839844 199.347656 547.371094 198.683594 C 541.023438 189.6875 535.777344 180.105469 532.183594 169.660156 C 531.910156 168.871094 531.574219 168.109375 531.273438 167.335938 C 530.917969 166.414062 530.523438 165.363281 529.398438 165.421875 C 528.546875 165.464844 527.792969 166.382812 527.730469 167.109375 C 527.441406 170.3125 525.242188 172.816406 524.691406 175.890625 C 524.445312 177.253906 524.777344 178.605469 525.140625 179.976562 C 527.882812 190.546875 532.417969 200.335938 537.96875 209.691406 C 538.464844 210.527344 539.101562 211.304688 539.410156 212.210938 C 539.765625 213.265625 538.941406 213.648438 538.042969 213.796875 C 537.382812 212.902344 536.527344 212.636719 535.480469 212.921875 C 534.722656 212.226562 533.929688 211.609375 532.792969 211.964844 C 532.710938 211.695312 532.539062 211.628906 532.292969 211.753906 C 531.589844 211.066406 530.828125 210.542969 529.765625 210.816406 C 529.183594 210.453125 528.644531 210.007812 528.011719 209.753906 C 521.105469 206.9375 514.152344 204.242188 507.277344 201.347656 C 501.035156 198.726562 494.882812 195.914062 488.695312 193.175781 C 487.148438 192.253906 485.644531 191.277344 484.070312 190.425781 C 468.820312 182.027344 454.808594 171.921875 442.34375 159.742188 C 437.894531 155.390625 433.582031 150.910156 429.210938 146.484375 C 428.886719 145.171875 427.863281 144.46875 426.847656 143.742188 C 426.566406 142.476562 425.605469 141.792969 424.644531 141.089844 C 424.464844 139.867188 423.496094 139.269531 422.667969 138.546875 C 422.621094 137.726562 422.121094 137.242188 421.445312 136.894531 C 421.410156 136.597656 421.25 136.414062 420.957031 136.339844 C 420.890625 135.433594 420.152344 134.933594 419.703125 134.265625 C 417.507812 130.945312 414.730469 128.03125 412.9375 124.433594 C 412.472656 124.40625 411.574219 123.691406 412.097656 125.101562 C 412.441406 126.050781 412.28125 126.277344 411.9375 126.253906 C 411.640625 126.226562 411.210938 126.011719 410.863281 125.882812 C 404.257812 115.175781 399.023438 103.800781 394.53125 92.078125 C 394.214844 90.953125 393.894531 89.820312 393.578125 88.691406 C 391.691406 81.964844 389.796875 75.226562 387.902344 68.507812 C 388.011719 68.238281 388.019531 67.988281 387.941406 67.757812 C 387.882812 67.601562 387.792969 67.457031 387.664062 67.320312 C 387.84375 66.882812 387.753906 66.496094 387.429688 66.167969 C 387.621094 65.730469 387.53125 65.34375 387.191406 65.011719 C 387.402344 64.574219 387.3125 64.191406 386.964844 63.851562 C 387.171875 63.414062 387.105469 63.019531 386.75 62.691406 C 386.976562 62.253906 386.902344 61.867188 386.546875 61.539062 L 386.546875 61.523438 C 386.769531 61.101562 386.703125 60.707031 386.355469 60.382812 L 386.347656 60.359375 C 386.3125 59.984375 386.253906 59.601562 386.171875 59.222656 L 386.167969 59.183594 C 386.390625 58.761719 386.339844 58.386719 385.992188 58.046875 L 385.984375 58.007812 C 386.210938 57.585938 386.160156 57.210938 385.808594 56.871094 L 385.804688 56.832031 C 385.804688 56.832031 385.804688 56.816406 385.804688 56.816406 C 385.804688 56.816406 385.804688 56.832031 385.804688 56.832031 C 386.042969 56.414062 385.984375 56.027344 385.636719 55.691406 L 385.628906 55.664062 C 385.871094 55.246094 385.8125 54.859375 385.464844 54.523438 L 385.464844 54.507812 C 385.695312 54.078125 385.644531 53.683594 385.304688 53.339844 C 385.035156 49.71875 384.777344 46.105469 384.507812 42.488281 C 383.777344 40.648438 383.996094 38.703125 383.945312 36.796875 C 384.144531 36.6875 384.339844 36.640625 384.535156 36.621094 C 384.839844 36.59375 385.128906 36.65625 385.425781 36.828125 C 385.542969 35.390625 385.765625 33.953125 385.21875 32.546875 C 385.011719 32.136719 384.871094 31.710938 384.90625 31.234375 C 385.011719 31.667969 385.105469 32.109375 385.21875 32.546875 C 385.347656 32.09375 385.417969 31.648438 385.007812 31.324219 C 385.4375 30.738281 385.441406 30.113281 385.183594 29.449219 C 385.46875 29.078125 385.511719 28.703125 385.1875 28.328125 C 385.371094 27.878906 385.441406 27.453125 385.125 27.039062 C 385.25 26.832031 385.292969 26.621094 385.199219 26.378906 C 385.5625 24.992188 385.625 23.605469 385.347656 22.199219 C 385.550781 21.207031 385.785156 20.21875 385.457031 19.210938 C 385.820312 18.628906 385.707031 17.992188 385.648438 17.367188 C 386.457031 13.460938 386.542969 9.429688 388.164062 5.503906 C 386.671875 5.589844 385.714844 4.28125 384.464844 5.121094 Z M 531.796875 212.417969 C 531.789062 212.40625 531.789062 212.40625 531.78125 212.398438 C 531.773438 212.40625 531.78125 212.414062 531.78125 212.414062 C 531.773438 212.40625 531.773438 212.390625 531.773438 212.390625 C 531.773438 212.390625 531.78125 212.398438 531.78125 212.398438 C 531.789062 212.390625 531.796875 212.386719 531.800781 212.371094 C 531.804688 212.394531 531.796875 212.402344 531.796875 212.417969 Z M 383.390625 56.226562 C 383.386719 56.320312 383.382812 56.414062 383.378906 56.507812 C 383.375 56.484375 383.367188 56.460938 383.359375 56.4375 C 383.347656 56.359375 383.332031 56.28125 383.328125 56.195312 C 383.335938 56.203125 383.359375 56.210938 383.390625 56.226562 Z M 387.855469 68.457031 C 387.847656 68.464844 387.839844 68.457031 387.832031 68.464844 C 387.800781 68.464844 387.769531 68.480469 387.738281 68.476562 L 387.628906 68.476562 L 387.839844 68.457031 C 387.847656 68.449219 387.839844 68.441406 387.847656 68.433594 C 387.839844 68.441406 387.847656 68.449219 387.855469 68.457031 Z M 382.996094 56.035156 C 383.105469 56.085938 383.210938 56.136719 383.304688 56.1875 C 383.316406 56.265625 383.332031 56.34375 383.34375 56.421875 C 383.292969 56.253906 383.183594 56.121094 382.996094 56.035156 Z M 383.40625 56.953125 C 383.417969 57.046875 383.429688 57.140625 383.4375 57.226562 C 383.425781 57.234375 383.433594 57.242188 383.425781 57.25 C 383.421875 57.148438 383.417969 57.046875 383.40625 56.953125 Z M 380.625 11.617188 C 380.617188 11.609375 380.617188 11.59375 380.609375 11.582031 C 380.609375 11.582031 380.613281 11.566406 380.613281 11.566406 C 380.621094 11.5625 380.621094 11.546875 380.628906 11.539062 C 380.636719 11.5625 380.625 11.585938 380.625 11.617188 Z M 380.273438 13.351562 C 380.257812 13.367188 380.242188 13.382812 380.25 13.40625 C 380.265625 13.390625 380.265625 13.359375 380.273438 13.351562 Z M 384.472656 30.660156 C 384.398438 30.625 384.3125 30.601562 384.210938 30.589844 C 384.242188 30.542969 384.277344 30.5 384.308594 30.453125 C 384.359375 30.523438 384.421875 30.589844 384.472656 30.660156 Z M 384.898438 27.554688 C 384.878906 27.40625 384.917969 27.25 385 27.097656 C 385 27.097656 385 27.097656 385.007812 27.105469 C 384.9375 27.257812 384.894531 27.40625 384.898438 27.554688 Z M 384.898438 27.554688 " fill-opacity="1" fill-rule="nonzero"/></g></g></g><g clip-path="url(#67fa4bdd54)"><g clip-path="url(#07da3034d6)"><g clip-path="url(#471fb4f4e5)"><path fill="#000000" d="M 386.144531 59.160156 C 386.203125 59.546875 386.269531 59.921875 386.320312 60.296875 C 386.550781 59.867188 386.484375 59.492188 386.144531 59.160156 Z M 386.144531 59.160156 " fill-opacity="1" fill-rule="nonzero"/></g></g></g></svg>