<svg xmlns="http://www.w3.org/2000/svg" xmlns:xlink="http://www.w3.org/1999/xlink" width="768" zoomAndPan="magnify" viewBox="0 0 576 359.999987" height="480" preserveAspectRatio="xMidYMid meet" version="1.0"><defs><clipPath id="e9ebf17fd9"><path d="M 5 0 L 108 0 L 108 180 L 5 180 Z M 5 0 " clip-rule="nonzero"/></clipPath><clipPath id="14640ad4a9"><path d="M -14.5 174.695312 L 84.523438 -15.582031 L 146.394531 16.617188 L 47.375 206.894531 Z M -14.5 174.695312 " clip-rule="nonzero"/></clipPath><clipPath id="78cc6186c2"><path d="M -14.5 174.695312 L 84.523438 -15.582031 L 146.394531 16.617188 L 47.375 206.894531 Z M -14.5 174.695312 " clip-rule="nonzero"/></clipPath><clipPath id="da629dde60"><path d="M 0 109 L 68 109 L 68 183 L 0 183 Z M 0 109 " clip-rule="nonzero"/></clipPath><clipPath id="97332b2d14"><path d="M -14.5 174.695312 L 84.523438 -15.582031 L 146.394531 16.617188 L 47.375 206.894531 Z M -14.5 174.695312 " clip-rule="nonzero"/></clipPath><clipPath id="2f7600fa66"><path d="M -14.5 174.695312 L 84.523438 -15.582031 L 146.394531 16.617188 L 47.375 206.894531 Z M -14.5 174.695312 " clip-rule="nonzero"/></clipPath></defs><rect x="-57.6" width="691.2" fill="#ffffff" y="-35.999999" height="431.999984" fill-opacity="1"/><rect x="-57.6" width="691.2" fill="#ffffff" y="-35.999999" height="431.999984" fill-opacity="1"/><g clip-path="url(#e9ebf17fd9)"><g clip-path="url(#14640ad4a9)"><g clip-path="url(#78cc6186c2)"><path fill="#000000" d="M 105.027344 -2.277344 C 104.964844 -2.199219 104.910156 -2.101562 104.871094 -1.984375 C 104.382812 -0.589844 103.066406 2.78125 102.816406 3.25 L 98.039062 13.910156 L 83.707031 46.710938 C 76.347656 63.058594 68.300781 79.070312 59.535156 94.710938 C 50.796875 110.292969 41.339844 125.484375 31.09375 140.136719 C 28.101562 144.585938 25.050781 149.023438 21.871094 153.347656 C 19.769531 156.230469 17.597656 159.054688 15.378906 161.84375 L 9.925781 168.257812 C 9.527344 168.71875 8.496094 169.839844 7.804688 170.601562 C 6.84375 171.054688 6.03125 171.84375 5.566406 172.882812 C 4.78125 174.644531 5.109375 175.820312 5.238281 176.3125 C 5.78125 178.222656 7.023438 179.210938 8.671875 179.582031 C 9.382812 179.75 10.824219 179.949219 12.449219 178.832031 C 13.234375 178.285156 15.785156 175.457031 16.808594 174.289062 L 22.515625 167.527344 C 25.386719 163.945312 28.152344 160.277344 30.859375 156.550781 C 33.550781 152.863281 36.1875 149.121094 38.765625 145.355469 C 48.761719 130.171875 57.960938 114.496094 66.371094 98.402344 C 74.765625 82.339844 82.386719 65.890625 89.320312 49.136719 L 102.683594 15.769531 C 103.628906 13.195312 104.644531 10.65625 105.476562 8.058594 C 105.84375 6.9375 106.132812 5.804688 106.449219 4.671875 C 106.609375 4.105469 107.265625 0.238281 107.472656 -1.347656 C 107.515625 -1.683594 107.554688 -1.921875 107.566406 -2.039062 C 107.574219 -2.453125 107.519531 -2.695312 107.472656 -2.773438 C 107.199219 -3.285156 106.863281 -3.53125 106.507812 -3.554688 C 106.214844 -3.566406 105.738281 -3.65625 105.371094 -3.167969 C 105.140625 -2.917969 105.019531 -2.59375 105.027344 -2.277344 Z M 14.136719 176.117188 L 14.144531 176.066406 L 14.117188 176.160156 Z M 14.046875 176.375 L 14.078125 176.277344 L 14.039062 176.398438 Z M 14.046875 176.375 " fill-opacity="1" fill-rule="evenodd"/></g></g></g><g clip-path="url(#da629dde60)"><g clip-path="url(#97332b2d14)"><g clip-path="url(#2f7600fa66)"><path fill="#000000" d="M 63.441406 161.609375 C 63.257812 161.476562 62.789062 161.402344 63.226562 161.296875 C 63.519531 161.226562 62.714844 161.355469 62.980469 161.1875 C 63.128906 161.09375 62.640625 160.519531 62.773438 160.703125 C 62.828125 160.769531 62.636719 160.804688 62.539062 160.867188 C 59.5 163.0625 50.164062 164.691406 48.628906 165.101562 C 42.351562 166.890625 36.09375 168.769531 29.789062 170.4375 C 25.628906 171.535156 21.457031 172.558594 17.242188 173.382812 L 9.164062 174.839844 L 13.976562 159.308594 C 15.371094 154.605469 22.199219 135.230469 25.210938 123.210938 C 26.625 117.570312 26.898438 113.191406 26.328125 111.648438 C 25.558594 109.640625 23.300781 108.628906 21.289062 109.398438 C 19.375 110.128906 18.375 112.1875 18.925781 114.113281 C 18.832031 114.140625 19.007812 114.355469 19.039062 114.4375 C 18.988281 114.332031 18.957031 114.222656 18.925781 114.113281 L 18.941406 114.109375 C 19.449219 114.066406 18.921875 115.332031 18.789062 116.207031 C 18.308594 119.613281 17 124.789062 15.425781 130.34375 C 12.320312 141.328125 8.21875 153.726562 7.195312 157.347656 L 2.160156 174.679688 L 0.972656 177.890625 C 0.503906 179.023438 0.6875 180.3125 1.457031 181.261719 C 2.226562 182.203125 3.445312 182.667969 4.652344 182.449219 L 18.535156 179.679688 C 22.867188 178.742188 27.160156 177.625 31.433594 176.40625 C 37.742188 174.601562 43.996094 172.558594 50.269531 170.617188 C 51.726562 170.144531 59.617188 168.167969 63.699219 165.941406 C 64.851562 165.304688 65.839844 164.703125 66.328125 164 C 66.511719 163.742188 66.699219 163.539062 66.761719 163.273438 C 66.832031 163.058594 66.964844 162.914062 66.964844 162.699219 C 66.980469 162.542969 67.070312 162.433594 67.0625 162.296875 C 67.054688 162.195312 67.144531 162.113281 67.097656 162.039062 C 66.808594 161.597656 67.253906 161.8125 66.796875 161.59375 C 66.152344 161.332031 67.277344 161.0625 66.660156 161.015625 C 66.359375 160.992188 66.824219 160.738281 66.527344 160.769531 C 65.960938 160.824219 66.773438 160.308594 66.175781 160.367188 C 65.691406 160.421875 65.3125 159.816406 64.980469 159.980469 C 64.265625 159.824219 63.566406 160.296875 63.421875 161.019531 C 63.375 161.214844 63.386719 161.425781 63.441406 161.609375 Z M 63.472656 161.746094 C 63.457031 161.78125 63.433594 161.8125 63.375 161.851562 C 63.148438 161.996094 63.695312 161.886719 63.492188 162.066406 C 63.226562 162.300781 63.582031 162.109375 63.742188 162.179688 C 63.621094 162.058594 63.535156 161.910156 63.472656 161.746094 Z M 63.804688 162.25 C 63.816406 162.28125 63.824219 162.324219 63.808594 162.398438 C 63.753906 162.578125 64.050781 162.519531 64.265625 162.523438 C 64.085938 162.46875 63.933594 162.359375 63.804688 162.25 Z M 63.804688 162.25 " fill-opacity="1" fill-rule="evenodd"/></g></g></g></svg>