<svg xmlns="http://www.w3.org/2000/svg" xmlns:xlink="http://www.w3.org/1999/xlink" width="768" zoomAndPan="magnify" viewBox="0 0 576 359.999987" height="480" preserveAspectRatio="xMidYMid meet" version="1.0"><defs><clipPath id="2ccfc850ba"><path d="M 13 31 L 569 31 L 569 349 L 13 349 Z M 13 31 " clip-rule="nonzero"/></clipPath><clipPath id="56ea45542e"><path d="M 16.257812 25.777344 L 594.269531 231.414062 L 536.199219 394.640625 L -41.8125 189.007812 Z M 16.257812 25.777344 " clip-rule="nonzero"/></clipPath><clipPath id="c14609605b"><path d="M 16.257812 25.777344 L 594.269531 231.414062 L 536.199219 394.640625 L -41.8125 189.007812 Z M 16.257812 25.777344 " clip-rule="nonzero"/></clipPath><clipPath id="4733571e67"><path d="M 77 131 L 80 131 L 80 134 L 77 134 Z M 77 131 " clip-rule="nonzero"/></clipPath><clipPath id="c7515c6931"><path d="M 16.257812 25.777344 L 594.269531 231.414062 L 536.199219 394.640625 L -41.8125 189.007812 Z M 16.257812 25.777344 " clip-rule="nonzero"/></clipPath><clipPath id="3f2b132469"><path d="M 16.257812 25.777344 L 594.269531 231.414062 L 536.199219 394.640625 L -41.8125 189.007812 Z M 16.257812 25.777344 " clip-rule="nonzero"/></clipPath></defs><rect x="-57.6" width="691.2" fill="#ffffff" y="-35.999999" height="431.999984" fill-opacity="1"/><rect x="-57.6" width="691.2" fill="#ffffff" y="-35.999999" height="431.999984" fill-opacity="1"/><g clip-path="url(#2ccfc850ba)"><g clip-path="url(#56ea45542e)"><g clip-path="url(#c14609605b)"><path fill="#000000" d="M 23.742188 33.792969 C 23.300781 34.09375 23.097656 34.527344 23.121094 35.066406 C 21.492188 35.980469 19.207031 34.011719 17.890625 36.289062 C 12.617188 38.777344 12.683594 43.261719 13.601562 48 C 16.210938 61.269531 20.921875 73.84375 26.40625 86.136719 C 46.09375 130.144531 74.0625 168.011719 109.03125 201.304688 C 170.070312 259.445312 243.355469 290.554688 325.730469 302.070312 C 363.917969 307.414062 402.324219 305.984375 440.664062 302.773438 C 463.199219 300.882812 485.542969 297.644531 507.980469 294.949219 C 508.746094 294.496094 509.488281 294.039062 510.25 293.585938 C 511.207031 293.878906 512.371094 293.929688 513.019531 294.546875 C 513.019531 294.546875 513.019531 294.546875 513.03125 294.578125 C 513.53125 295.066406 512.820312 295.777344 512.015625 295.878906 C 505.648438 302.050781 498.191406 306.679688 490.492188 310.90625 C 485.21875 313.804688 480.320312 317.003906 476.449219 321.652344 C 465.054688 327.792969 461.328125 337.390625 465.601562 348.410156 C 491.421875 347.734375 511.667969 334.664062 531.171875 319.6875 C 538.429688 314.121094 546.039062 309.066406 553.570312 303.886719 C 571.621094 291.503906 568.308594 292.28125 567.082031 274.511719 C 566.808594 270.53125 565.621094 266.6875 564.042969 262.992188 C 563.46875 261.628906 562.808594 260.429688 561.332031 259.90625 C 560.769531 255.390625 557.191406 254.070312 553.636719 252.949219 C 543.078125 249.625 532.496094 246.441406 521.90625 243.203125 C 520.148438 241.230469 517.753906 240.785156 515.316406 240.449219 C 513.632812 238.402344 511.199219 237.996094 508.824219 237.488281 C 507.867188 235.847656 506 235.664062 504.515625 234.894531 C 484.410156 224.390625 465.777344 211.785156 449.347656 196.03125 C 448.105469 194.84375 446.777344 193.765625 445.492188 192.636719 C 443.976562 191.277344 442.261719 189.726562 440.253906 190.890625 C 438.738281 191.773438 438.222656 194.171875 438.789062 195.554688 C 441.28125 201.695312 439.609375 208.355469 441.5 214.5 C 442.335938 217.234375 444.21875 219.398438 446.171875 221.5625 C 461.148438 238.34375 478.683594 252.007812 497.664062 263.917969 C 499.359375 264.976562 501.261719 265.800781 502.675781 267.171875 C 504.324219 268.769531 503.175781 270.242188 501.664062 271.367188 C 499.617188 270.347656 497.792969 270.664062 496.144531 272.175781 C 494.101562 271.617188 492.070312 271.234375 490.328125 272.949219 C 489.917969 272.539062 489.542969 272.574219 489.210938 273.035156 C 487.277344 272.445312 485.382812 272.203125 483.695312 273.703125 C 482.289062 273.585938 480.878906 273.277344 479.484375 273.410156 C 464.175781 274.761719 448.902344 276.367188 433.582031 277.546875 C 419.675781 278.625 405.753906 279.265625 391.84375 280.078125 C 388.140625 279.84375 384.464844 279.476562 380.78125 279.394531 C 344.933594 278.382812 309.746094 273.074219 275.4375 262.507812 C 263.1875 258.726562 251.066406 254.582031 238.890625 250.589844 C 237.058594 248.492188 234.519531 248.167969 231.976562 247.792969 C 230.273438 245.738281 227.867188 245.390625 225.445312 245.011719 C 223.964844 242.941406 221.617188 242.757812 219.425781 242.21875 C 218.570312 240.757812 217.199219 240.339844 215.632812 240.339844 C 215.285156 239.828125 214.820312 239.640625 214.214844 239.785156 C 213.242188 238.183594 211.414062 237.96875 209.964844 237.164062 C 202.808594 233.148438 194.976562 230.433594 188.308594 225.53125 C 187.425781 225.914062 185.105469 225.453125 187.398438 227.546875 C 188.921875 228.953125 188.839844 229.527344 188.1875 229.800781 C 187.621094 230.035156 186.628906 230.042969 185.875 230.136719 C 163.6875 216.746094 143.378906 200.84375 124.105469 183.597656 C 122.46875 181.832031 120.808594 180.0625 119.171875 178.296875 C 109.375 167.75 99.558594 157.191406 89.753906 146.667969 C 89.703125 146.070312 89.480469 145.605469 89.121094 145.261719 C 88.867188 145.023438 88.570312 144.847656 88.207031 144.71875 C 88.117188 143.746094 87.589844 143.125 86.683594 142.824219 C 86.625 141.839844 86.097656 141.21875 85.164062 140.933594 C 85.132812 139.9375 84.609375 139.316406 83.652344 139.023438 C 83.621094 138.023438 83.132812 137.367188 82.167969 137.097656 C 82.164062 136.082031 81.667969 135.449219 80.703125 135.175781 L 80.691406 135.148438 C 80.703125 134.164062 80.210938 133.507812 79.269531 133.246094 L 79.234375 133.207031 C 78.816406 132.554688 78.347656 131.90625 77.84375 131.292969 L 77.792969 131.226562 C 77.808594 130.242188 77.359375 129.601562 76.402344 129.308594 L 76.355469 129.242188 C 76.367188 128.257812 75.921875 127.617188 74.964844 127.324219 L 74.914062 127.257812 C 74.914062 127.257812 74.902344 127.230469 74.902344 127.230469 C 74.902344 127.230469 74.914062 127.257812 74.914062 127.257812 C 74.957031 126.261719 74.488281 125.613281 73.53125 125.320312 L 73.496094 125.285156 C 73.535156 124.285156 73.070312 123.636719 72.113281 123.347656 L 72.097656 123.316406 C 72.117188 122.3125 71.65625 121.640625 70.707031 121.328125 C 66.804688 114.949219 62.925781 108.578125 59.023438 102.199219 C 55.953125 99.515625 54.519531 95.753906 52.632812 92.308594 C 52.894531 91.917969 53.207031 91.644531 53.550781 91.429688 C 54.082031 91.089844 54.664062 90.933594 55.375 90.96875 C 54.230469 88.226562 53.289062 85.382812 50.960938 83.324219 C 50.195312 82.761719 49.535156 82.117188 49.15625 81.210938 C 49.753906 81.90625 50.34375 82.621094 50.960938 83.324219 C 50.773438 82.367188 50.480469 81.492188 49.421875 81.28125 C 49.660156 79.800781 49.078125 78.652344 47.976562 77.683594 C 48.148438 76.730469 47.875 76.007812 46.925781 75.621094 C 46.847656 74.628906 46.570312 73.78125 45.601562 73.316406 C 45.632812 72.824219 45.519531 72.398438 45.117188 72.035156 C 44.476562 69.15625 43.28125 66.5625 41.453125 64.246094 C 40.886719 62.238281 40.382812 60.203125 38.832031 58.664062 C 38.949219 57.257812 38.144531 56.199219 37.445312 55.109375 C 35.25 47.191406 31.613281 39.726562 30.882812 31.003906 C 28.230469 32.566406 25.242188 31.070312 23.742188 33.792969 Z M 488.925781 274.71875 C 488.90625 274.710938 488.90625 274.710938 488.882812 274.703125 C 488.875 274.726562 488.898438 274.730469 488.898438 274.730469 C 488.875 274.726562 488.863281 274.695312 488.863281 274.695312 C 488.863281 274.695312 488.882812 274.703125 488.882812 274.703125 C 488.890625 274.683594 488.898438 274.660156 488.882812 274.632812 C 488.917969 274.667969 488.914062 274.691406 488.925781 274.71875 Z M 69.917969 128.425781 C 70.003906 128.597656 70.085938 128.773438 70.167969 128.945312 C 70.132812 128.910156 70.097656 128.871094 70.0625 128.835938 C 69.964844 128.703125 69.867188 128.574219 69.777344 128.421875 C 69.796875 128.429688 69.847656 128.421875 69.917969 128.425781 Z M 89.625 146.621094 C 89.617188 146.640625 89.597656 146.632812 89.589844 146.65625 C 89.53125 146.683594 89.488281 146.738281 89.429688 146.765625 L 89.226562 146.863281 L 89.597656 146.632812 C 89.605469 146.613281 89.582031 146.605469 89.589844 146.582031 C 89.582031 146.605469 89.605469 146.613281 89.625 146.621094 Z M 69.019531 128.441406 C 69.265625 128.433594 69.511719 128.421875 69.726562 128.425781 C 69.824219 128.558594 69.921875 128.691406 70.019531 128.820312 C 69.773438 128.566406 69.4375 128.421875 69.019531 128.441406 Z M 70.632812 129.738281 C 70.746094 129.898438 70.855469 130.058594 70.945312 130.210938 C 70.941406 130.234375 70.960938 130.242188 70.953125 130.261719 C 70.847656 130.082031 70.746094 129.898438 70.632812 129.738281 Z M 22.828125 49.304688 C 22.808594 49.296875 22.792969 49.269531 22.773438 49.261719 C 22.773438 49.261719 22.757812 49.234375 22.757812 49.234375 C 22.765625 49.210938 22.753906 49.183594 22.761719 49.160156 C 22.796875 49.199219 22.800781 49.246094 22.828125 49.304688 Z M 23.820312 52.816406 C 23.804688 52.859375 23.792969 52.902344 23.828125 52.9375 C 23.839844 52.894531 23.8125 52.839844 23.820312 52.816406 Z M 47.820312 80.566406 C 47.648438 80.578125 47.464844 80.609375 47.269531 80.6875 C 47.289062 80.570312 47.304688 80.457031 47.320312 80.34375 C 47.484375 80.425781 47.65625 80.484375 47.820312 80.566406 Z M 45.671875 74.476562 C 45.496094 74.222656 45.417969 73.902344 45.425781 73.542969 C 45.425781 73.542969 45.425781 73.542969 45.445312 73.550781 C 45.46875 73.898438 45.527344 74.207031 45.671875 74.476562 Z M 45.671875 74.476562 " fill-opacity="1" fill-rule="nonzero"/></g></g></g><g clip-path="url(#4733571e67)"><g clip-path="url(#c7515c6931)"><g clip-path="url(#3f2b132469)"><path fill="#000000" d="M 77.730469 131.203125 C 78.199219 131.851562 78.675781 132.480469 79.121094 133.121094 C 79.140625 132.113281 78.664062 131.488281 77.730469 131.203125 Z M 77.730469 131.203125 " fill-opacity="1" fill-rule="nonzero"/></g></g></g></svg>