<svg xmlns="http://www.w3.org/2000/svg" xmlns:xlink="http://www.w3.org/1999/xlink" width="768" zoomAndPan="magnify" viewBox="0 0 576 359.999987" height="480" preserveAspectRatio="xMidYMid meet" version="1.0"><defs><clipPath id="5894cc5010"><path d="M 294 6 L 576 6 L 576 354 L 294 354 Z M 294 6 " clip-rule="nonzero"/></clipPath><clipPath id="4db9a58a5f"><path d="M 307.878906 0 L 604.625 316.011719 L 515.511719 399.695312 L 218.761719 83.6875 Z M 307.878906 0 " clip-rule="nonzero"/></clipPath><clipPath id="47aca87103"><path d="M 307.878906 0 L 604.625 316.011719 L 515.511719 399.695312 L 218.761719 83.6875 Z M 307.878906 0 " clip-rule="nonzero"/></clipPath><clipPath id="4b15abbbce"><path d="M 312 86 L 313 86 L 313 88 L 312 88 Z M 312 86 " clip-rule="nonzero"/></clipPath><clipPath id="25128ad253"><path d="M 307.878906 0 L 604.625 316.011719 L 515.511719 399.695312 L 218.761719 83.6875 Z M 307.878906 0 " clip-rule="nonzero"/></clipPath><clipPath id="0d365d2146"><path d="M 307.878906 0 L 604.625 316.011719 L 515.511719 399.695312 L 218.761719 83.6875 Z M 307.878906 0 " clip-rule="nonzero"/></clipPath></defs><rect x="-57.6" width="691.2" fill="#ffffff" y="-35.999999" height="431.999984" fill-opacity="1"/><rect x="-57.6" width="691.2" fill="#ffffff" y="-35.999999" height="431.999984" fill-opacity="1"/><g clip-path="url(#5894cc5010)"><g clip-path="url(#4db9a58a5f)"><g clip-path="url(#47aca87103)"><path fill="#000000" d="M 309.988281 7.453125 C 309.613281 7.5 309.34375 7.707031 309.1875 8.050781 C 307.867188 8.101562 307.066406 6.125 305.503906 7.128906 C 301.386719 6.988281 299.980469 9.828125 299.023438 13.101562 C 296.375 22.285156 295.273438 31.707031 294.746094 41.203125 C 292.894531 75.21875 298.230469 108.050781 309.445312 140.273438 C 329.011719 196.53125 365.007812 239.761719 413.046875 273.617188 C 435.316406 289.316406 459.910156 300.828125 485.039062 311.199219 C 499.808594 317.296875 514.894531 322.484375 529.867188 328.039062 C 530.492188 328.003906 531.105469 327.953125 531.730469 327.917969 C 532.238281 328.410156 532.953125 328.816406 533.160156 329.414062 C 533.160156 329.414062 533.160156 329.414062 533.160156 329.4375 C 533.316406 329.90625 532.640625 330.125 532.101562 329.925781 C 526.105469 331.746094 519.925781 332.246094 513.71875 332.414062 C 509.46875 332.53125 505.359375 332.957031 501.421875 334.628906 C 492.277344 334.804688 486.835938 339.628906 485.960938 347.9375 C 502.402344 355.855469 519.347656 354.183594 536.441406 351.078125 C 542.800781 349.925781 549.21875 349.210938 555.625 348.386719 C 570.964844 346.441406 568.632812 345.855469 573.609375 334.296875 C 574.722656 331.707031 575.21875 328.910156 575.421875 326.078125 C 575.5 325.035156 575.472656 324.070312 574.714844 323.261719 C 575.820312 320.242188 574 318.253906 572.125 316.402344 C 566.566406 310.902344 560.945312 305.480469 555.339844 300.023438 C 554.871094 298.214844 553.507812 297.164062 552.085938 296.164062 C 551.691406 294.335938 550.292969 293.292969 548.964844 292.207031 C 548.894531 290.863281 547.78125 290.148438 547.097656 289.183594 C 537.855469 276.085938 530.222656 262.144531 524.988281 246.9375 C 524.59375 245.789062 524.105469 244.683594 523.664062 243.554688 C 523.152344 242.210938 522.574219 240.683594 520.9375 240.769531 C 519.699219 240.832031 518.601562 242.171875 518.511719 243.222656 C 518.089844 247.886719 514.886719 251.535156 514.089844 256.003906 C 513.730469 257.992188 514.214844 259.960938 514.742188 261.953125 C 518.734375 277.335938 525.335938 291.589844 533.410156 305.207031 C 534.132812 306.421875 535.0625 307.550781 535.507812 308.871094 C 536.027344 310.410156 534.832031 310.960938 533.519531 311.179688 C 532.558594 309.878906 531.3125 309.488281 529.789062 309.90625 C 528.683594 308.894531 527.53125 307.996094 525.882812 308.511719 C 525.757812 308.121094 525.511719 308.023438 525.152344 308.203125 C 524.128906 307.207031 523.015625 306.445312 521.472656 306.839844 C 520.625 306.3125 519.839844 305.664062 518.921875 305.296875 C 508.867188 301.199219 498.75 297.269531 488.742188 293.0625 C 479.652344 289.246094 470.699219 285.148438 461.695312 281.164062 C 459.445312 279.820312 457.253906 278.402344 454.964844 277.160156 C 432.765625 264.9375 412.375 250.230469 394.230469 232.503906 C 387.753906 226.171875 381.476562 219.648438 375.117188 213.207031 C 374.644531 211.292969 373.152344 210.269531 371.675781 209.214844 C 371.269531 207.375 369.871094 206.375 368.472656 205.355469 C 368.210938 203.574219 366.796875 202.703125 365.589844 201.65625 C 365.527344 200.460938 364.800781 199.757812 363.816406 199.25 C 363.761719 198.816406 363.53125 198.546875 363.101562 198.441406 C 363.007812 197.121094 361.929688 196.394531 361.277344 195.421875 C 358.082031 190.585938 354.035156 186.351562 351.429688 181.113281 C 350.75 181.070312 349.445312 180.03125 350.207031 182.085938 C 350.710938 183.464844 350.472656 183.796875 349.972656 183.757812 C 349.542969 183.722656 348.917969 183.40625 348.414062 183.222656 C 338.796875 167.636719 331.179688 151.082031 324.640625 134.015625 C 324.183594 132.378906 323.710938 130.730469 323.253906 129.089844 C 320.503906 119.296875 317.75 109.492188 314.992188 99.710938 C 315.152344 99.316406 315.160156 98.953125 315.046875 98.621094 C 314.964844 98.390625 314.835938 98.183594 314.648438 97.984375 C 314.90625 97.347656 314.777344 96.785156 314.304688 96.304688 C 314.585938 95.667969 314.453125 95.105469 313.957031 94.625 C 314.261719 93.988281 314.132812 93.425781 313.625 92.933594 C 313.929688 92.296875 313.832031 91.726562 313.316406 91.246094 C 313.640625 90.609375 313.535156 90.046875 313.015625 89.566406 L 313.015625 89.542969 C 313.34375 88.929688 313.246094 88.359375 312.738281 87.886719 L 312.730469 87.855469 C 312.679688 87.308594 312.59375 86.75 312.476562 86.199219 L 312.464844 86.144531 C 312.789062 85.527344 312.71875 84.980469 312.210938 84.488281 L 312.199219 84.429688 C 312.527344 83.816406 312.453125 83.269531 311.945312 82.777344 L 311.9375 82.71875 C 311.9375 82.71875 311.9375 82.699219 311.9375 82.699219 C 311.9375 82.699219 311.9375 82.71875 311.9375 82.71875 C 312.285156 82.105469 312.199219 81.546875 311.695312 81.054688 L 311.683594 81.019531 C 312.03125 80.40625 311.949219 79.847656 311.441406 79.355469 L 311.441406 79.332031 C 311.777344 78.707031 311.707031 78.136719 311.210938 77.632812 C 310.820312 72.363281 310.441406 67.105469 310.050781 61.839844 C 308.988281 59.160156 309.304688 56.332031 309.230469 53.558594 C 309.519531 53.398438 309.808594 53.328125 310.089844 53.300781 C 310.535156 53.257812 310.953125 53.351562 311.386719 53.605469 C 311.554688 51.507812 311.882812 49.417969 311.082031 47.371094 C 310.785156 46.773438 310.578125 46.152344 310.632812 45.460938 C 310.785156 46.089844 310.921875 46.730469 311.082031 47.371094 C 311.273438 46.707031 311.375 46.066406 310.777344 45.589844 C 311.40625 44.738281 311.410156 43.828125 311.03125 42.863281 C 311.445312 42.320312 311.507812 41.777344 311.039062 41.230469 C 311.308594 40.578125 311.40625 39.957031 310.949219 39.351562 C 311.128906 39.050781 311.195312 38.746094 311.058594 38.390625 C 311.589844 36.375 311.675781 34.355469 311.273438 32.3125 C 311.570312 30.867188 311.910156 29.425781 311.433594 27.957031 C 311.960938 27.109375 311.796875 26.1875 311.710938 25.277344 C 312.886719 19.589844 313.015625 13.722656 315.375 8.007812 C 313.203125 8.132812 311.808594 6.226562 309.988281 7.453125 Z M 524.429688 309.167969 C 524.417969 309.15625 524.417969 309.15625 524.410156 309.144531 C 524.398438 309.15625 524.40625 309.167969 524.40625 309.167969 C 524.398438 309.15625 524.398438 309.132812 524.398438 309.132812 C 524.398438 309.132812 524.410156 309.144531 524.410156 309.144531 C 524.421875 309.136719 524.433594 309.125 524.433594 309.101562 C 524.441406 309.136719 524.429688 309.148438 524.429688 309.167969 Z M 308.421875 81.835938 C 308.417969 81.972656 308.414062 82.109375 308.410156 82.246094 C 308.398438 82.210938 308.390625 82.175781 308.378906 82.144531 C 308.359375 82.027344 308.339844 81.914062 308.332031 81.789062 C 308.34375 81.800781 308.378906 81.8125 308.421875 81.835938 Z M 314.925781 99.640625 C 314.914062 99.652344 314.902344 99.640625 314.890625 99.648438 C 314.84375 99.648438 314.800781 99.671875 314.753906 99.667969 L 314.59375 99.664062 L 314.902344 99.640625 C 314.914062 99.628906 314.902344 99.617188 314.914062 99.605469 C 314.902344 99.617188 314.914062 99.628906 314.925781 99.640625 Z M 307.851562 81.558594 C 308.007812 81.632812 308.164062 81.703125 308.300781 81.777344 C 308.320312 81.890625 308.335938 82.003906 308.355469 82.121094 C 308.285156 81.878906 308.121094 81.679688 307.851562 81.558594 Z M 308.445312 82.894531 C 308.464844 83.03125 308.484375 83.167969 308.488281 83.292969 C 308.476562 83.304688 308.488281 83.316406 308.476562 83.328125 C 308.472656 83.179688 308.464844 83.03125 308.445312 82.894531 Z M 304.402344 16.90625 C 304.390625 16.894531 304.390625 16.871094 304.378906 16.859375 C 304.378906 16.859375 304.378906 16.835938 304.378906 16.835938 C 304.390625 16.824219 304.390625 16.804688 304.402344 16.792969 C 304.414062 16.828125 304.402344 16.859375 304.402344 16.90625 Z M 303.890625 19.433594 C 303.867188 19.453125 303.84375 19.476562 303.851562 19.511719 C 303.875 19.488281 303.878906 19.445312 303.890625 19.433594 Z M 310 44.625 C 309.890625 44.574219 309.765625 44.539062 309.617188 44.523438 C 309.664062 44.457031 309.714844 44.390625 309.761719 44.320312 C 309.835938 44.425781 309.925781 44.519531 310 44.625 Z M 310.621094 40.101562 C 310.59375 39.886719 310.644531 39.660156 310.765625 39.4375 C 310.765625 39.4375 310.765625 39.4375 310.777344 39.449219 C 310.679688 39.671875 310.613281 39.886719 310.621094 40.101562 Z M 310.621094 40.101562 " fill-opacity="1" fill-rule="nonzero"/></g></g></g><g clip-path="url(#4b15abbbce)"><g clip-path="url(#25128ad253)"><g clip-path="url(#0d365d2146)"><path fill="#000000" d="M 312.433594 86.109375 C 312.515625 86.667969 312.613281 87.214844 312.6875 87.761719 C 313.023438 87.136719 312.929688 86.589844 312.433594 86.109375 Z M 312.433594 86.109375 " fill-opacity="1" fill-rule="nonzero"/></g></g></g></svg>