<svg xmlns="http://www.w3.org/2000/svg" xmlns:xlink="http://www.w3.org/1999/xlink" width="768" zoomAndPan="magnify" viewBox="0 0 576 359.999987" height="480" preserveAspectRatio="xMidYMid meet" version="1.0"><defs><clipPath id="49746ac98d"><path d="M 21 4 L 576 4 L 576 360 L 21 360 Z M 21 4 " clip-rule="nonzero"/></clipPath><clipPath id="c0e609e208"><path d="M 25.847656 -1.484375 L 605.929688 248.113281 L 535.378906 412.082031 L -44.703125 162.484375 Z M 25.847656 -1.484375 " clip-rule="nonzero"/></clipPath><clipPath id="4eb7d69441"><path d="M 25.847656 -1.484375 L 605.929688 248.113281 L 535.378906 412.082031 L -44.703125 162.484375 Z M 25.847656 -1.484375 " clip-rule="nonzero"/></clipPath><clipPath id="478d42604f"><path d="M 81 110 L 84 110 L 84 113 L 81 113 Z M 81 110 " clip-rule="nonzero"/></clipPath><clipPath id="d090eadbe1"><path d="M 25.847656 -1.484375 L 605.929688 248.113281 L 535.378906 412.082031 L -44.703125 162.484375 Z M 25.847656 -1.484375 " clip-rule="nonzero"/></clipPath><clipPath id="132a7c7181"><path d="M 25.847656 -1.484375 L 605.929688 248.113281 L 535.378906 412.082031 L -44.703125 162.484375 Z M 25.847656 -1.484375 " clip-rule="nonzero"/></clipPath></defs><rect x="-57.6" width="691.2" fill="#ffffff" y="-35.999999" height="431.999984" fill-opacity="1"/><rect x="-57.6" width="691.2" fill="#ffffff" y="-35.999999" height="431.999984" fill-opacity="1"/><g clip-path="url(#49746ac98d)"><g clip-path="url(#c0e609e208)"><g clip-path="url(#4eb7d69441)"><path fill="#000000" d="M 32.996094 7.242188 C 32.519531 7.519531 32.28125 7.953125 32.273438 8.507812 C 30.539062 9.339844 28.324219 7.164062 26.820312 9.417969 C 21.238281 11.621094 21.011719 16.230469 21.640625 21.15625 C 23.4375 34.953125 27.441406 48.175781 32.257812 61.164062 C 49.550781 107.65625 75.753906 148.394531 109.453125 184.902344 C 168.269531 248.652344 241.453125 285.457031 325.273438 302.746094 C 364.132812 310.765625 403.660156 311.847656 443.238281 311.09375 C 466.507812 310.652344 489.664062 308.808594 512.882812 307.527344 C 513.695312 307.117188 514.488281 306.695312 515.300781 306.28125 C 516.265625 306.644531 517.453125 306.773438 518.078125 307.449219 C 518.078125 307.449219 518.078125 307.449219 518.09375 307.480469 C 518.574219 308.019531 517.796875 308.703125 516.960938 308.75 C 510.015625 314.664062 502.050781 318.921875 493.863281 322.753906 C 488.257812 325.378906 483.015625 328.335938 478.730469 332.855469 C 466.625 338.40625 462.160156 348.011719 465.820312 359.609375 C 492.375 360.628906 514.03125 348.550781 535.050781 334.46875 C 542.875 329.238281 551.023438 324.550781 559.097656 319.730469 C 578.453125 308.214844 575 308.789062 574.921875 290.464844 C 574.90625 286.363281 573.945312 282.335938 572.570312 278.4375 C 572.066406 277 571.46875 275.722656 569.988281 275.085938 C 569.710938 270.414062 566.121094 268.820312 562.546875 267.433594 C 551.925781 263.320312 541.273438 259.347656 530.613281 255.320312 C 528.941406 253.175781 526.507812 252.5625 524.03125 252.054688 C 522.4375 249.84375 519.964844 249.261719 517.558594 248.585938 C 516.683594 246.835938 514.78125 246.523438 513.308594 245.636719 C 493.363281 233.515625 475.066406 219.335938 459.242188 202.070312 C 458.046875 200.765625 456.753906 199.574219 455.507812 198.324219 C 454.039062 196.828125 452.382812 195.125 450.246094 196.1875 C 448.628906 196.992188 447.941406 199.417969 448.433594 200.878906 C 450.582031 207.351562 448.425781 214.078125 449.957031 220.511719 C 450.632812 223.375 452.421875 225.722656 454.285156 228.074219 C 468.550781 246.296875 485.648438 261.492188 504.34375 274.980469 C 506.015625 276.183594 507.914062 277.152344 509.277344 278.652344 C 510.863281 280.40625 509.585938 281.839844 507.960938 282.894531 C 505.925781 281.714844 504.03125 281.917969 502.242188 283.359375 C 500.179688 282.652344 498.117188 282.121094 496.214844 283.769531 C 495.820312 283.320312 495.433594 283.332031 495.0625 283.78125 C 493.113281 283.046875 491.1875 282.675781 489.355469 284.101562 C 487.917969 283.890625 486.492188 283.480469 485.050781 283.519531 C 469.242188 283.894531 453.449219 284.527344 437.644531 284.722656 C 423.292969 284.90625 408.957031 284.640625 394.621094 284.550781 C 390.832031 284.066406 387.082031 283.445312 383.304688 283.117188 C 346.5625 279.699219 310.785156 271.910156 276.257812 258.785156 C 263.929688 254.089844 251.757812 249.03125 239.523438 244.125 C 237.777344 241.847656 235.195312 241.347656 232.609375 240.792969 C 230.996094 238.570312 228.546875 238.054688 226.085938 237.503906 C 224.703125 235.28125 222.308594 234.9375 220.089844 234.234375 C 219.308594 232.679688 217.929688 232.160156 216.320312 232.054688 C 215.996094 231.507812 215.535156 231.285156 214.902344 231.394531 C 214.007812 229.683594 212.148438 229.34375 210.710938 228.417969 C 203.632812 223.820312 195.769531 220.515625 189.246094 215.035156 C 188.3125 215.375 185.964844 214.742188 188.179688 217.046875 C 189.652344 218.59375 189.527344 219.175781 188.839844 219.414062 C 188.242188 219.617188 187.226562 219.558594 186.441406 219.605469 C 164.546875 204.382812 144.753906 186.707031 126.109375 167.71875 C 124.542969 165.800781 122.957031 163.871094 121.390625 161.949219 C 112.03125 150.46875 102.652344 138.980469 93.285156 127.519531 C 93.273438 126.902344 93.074219 126.410156 92.730469 126.035156 C 92.484375 125.773438 92.191406 125.574219 91.824219 125.414062 C 91.800781 124.410156 91.300781 123.738281 90.390625 123.371094 C 90.394531 122.355469 89.894531 121.683594 88.953125 121.328125 C 88.988281 120.300781 88.488281 119.628906 87.527344 119.265625 C 87.5625 118.238281 87.101562 117.53125 86.128906 117.1875 C 86.195312 116.148438 85.726562 115.464844 84.753906 115.121094 L 84.742188 115.089844 C 84.820312 114.082031 84.363281 113.375 83.410156 113.042969 L 83.378906 113.003906 C 82.992188 112.300781 82.554688 111.605469 82.074219 110.941406 L 82.03125 110.871094 C 82.109375 109.863281 81.691406 109.171875 80.730469 108.808594 L 80.683594 108.738281 C 80.761719 107.730469 80.34375 107.042969 79.382812 106.679688 L 79.335938 106.609375 C 79.335938 106.609375 79.324219 106.578125 79.324219 106.578125 C 79.324219 106.578125 79.335938 106.609375 79.335938 106.609375 C 79.445312 105.585938 79.007812 104.890625 78.042969 104.527344 L 78.011719 104.484375 C 78.117188 103.464844 77.679688 102.765625 76.71875 102.402344 L 76.707031 102.371094 C 76.792969 101.339844 76.363281 100.625 75.410156 100.238281 C 71.828125 93.429688 68.265625 86.628906 64.683594 79.824219 C 61.707031 76.863281 60.484375 72.902344 58.777344 69.242188 C 59.070312 68.859375 59.410156 68.597656 59.777344 68.398438 C 60.34375 68.085938 60.957031 67.964844 61.683594 68.050781 C 60.6875 65.15625 59.910156 62.175781 57.65625 59.90625 C 56.90625 59.277344 56.269531 58.574219 55.945312 57.617188 C 56.511719 58.371094 57.066406 59.144531 57.65625 59.90625 C 57.523438 58.910156 57.285156 57.992188 56.210938 57.707031 C 56.554688 56.199219 56.035156 54.984375 54.96875 53.914062 C 55.203125 52.949219 54.972656 52.1875 54.023438 51.730469 C 54.007812 50.703125 53.777344 49.816406 52.816406 49.277344 C 52.882812 48.769531 52.792969 48.324219 52.402344 47.929688 C 51.9375 44.929688 50.882812 42.183594 49.15625 39.6875 C 48.710938 37.585938 48.328125 35.464844 46.839844 33.78125 C 47.050781 32.34375 46.292969 31.203125 45.652344 30.039062 C 43.921875 21.761719 40.683594 13.855469 40.511719 4.851562 C 37.683594 6.28125 34.714844 4.546875 32.996094 7.242188 Z M 494.660156 285.492188 C 494.636719 285.480469 494.636719 285.480469 494.617188 285.472656 C 494.605469 285.496094 494.628906 285.503906 494.628906 285.503906 C 494.605469 285.496094 494.59375 285.464844 494.59375 285.464844 C 494.59375 285.464844 494.613281 285.472656 494.613281 285.472656 C 494.625 285.453125 494.632812 285.429688 494.621094 285.398438 C 494.65625 285.4375 494.644531 285.460938 494.660156 285.492188 Z M 74.128906 107.472656 C 74.203125 107.65625 74.277344 107.839844 74.351562 108.023438 C 74.316406 107.984375 74.28125 107.945312 74.25 107.90625 C 74.15625 107.761719 74.066406 107.621094 73.984375 107.460938 C 74.003906 107.46875 74.054688 107.464844 74.128906 107.472656 Z M 93.15625 127.464844 C 93.148438 127.484375 93.125 127.476562 93.117188 127.496094 C 93.054688 127.523438 93.007812 127.578125 92.945312 127.601562 L 92.730469 127.6875 L 93.125 127.476562 C 93.136719 127.453125 93.113281 127.445312 93.125 127.425781 C 93.113281 127.445312 93.136719 127.453125 93.15625 127.464844 Z M 73.207031 107.429688 C 73.457031 107.4375 73.710938 107.445312 73.929688 107.460938 C 74.023438 107.605469 74.113281 107.746094 74.207031 107.886719 C 73.96875 107.605469 73.636719 107.4375 73.207031 107.429688 Z M 74.777344 108.871094 C 74.878906 109.042969 74.984375 109.214844 75.066406 109.375 C 75.058594 109.398438 75.078125 109.40625 75.070312 109.429688 C 74.972656 109.234375 74.878906 109.042969 74.777344 108.871094 Z M 31.027344 23.109375 C 31.003906 23.097656 30.992188 23.070312 30.972656 23.058594 C 30.972656 23.058594 30.960938 23.027344 30.960938 23.027344 C 30.96875 23.007812 30.957031 22.976562 30.964844 22.957031 C 31 22.996094 31.003906 23.046875 31.027344 23.109375 Z M 31.8125 26.78125 C 31.796875 26.824219 31.777344 26.867188 31.808594 26.90625 C 31.828125 26.863281 31.804688 26.800781 31.8125 26.78125 Z M 54.613281 56.867188 C 54.433594 56.867188 54.246094 56.886719 54.042969 56.953125 C 54.066406 56.835938 54.089844 56.71875 54.117188 56.601562 C 54.277344 56.699219 54.449219 56.773438 54.613281 56.867188 Z M 52.8125 50.46875 C 52.648438 50.195312 52.589844 49.863281 52.621094 49.496094 C 52.621094 49.496094 52.621094 49.496094 52.640625 49.503906 C 52.640625 49.863281 52.679688 50.183594 52.8125 50.46875 Z M 52.8125 50.46875 " fill-opacity="1" fill-rule="nonzero"/></g></g></g><g clip-path="url(#478d42604f)"><g clip-path="url(#d090eadbe1)"><g clip-path="url(#132a7c7181)"><path fill="#000000" d="M 81.964844 110.84375 C 82.402344 111.539062 82.851562 112.214844 83.265625 112.90625 C 83.355469 111.875 82.90625 111.199219 81.964844 110.84375 Z M 81.964844 110.84375 " fill-opacity="1" fill-rule="nonzero"/></g></g></g></svg>