<svg xmlns="http://www.w3.org/2000/svg" xmlns:xlink="http://www.w3.org/1999/xlink" width="768" zoomAndPan="magnify" viewBox="0 0 576 359.999987" height="480" preserveAspectRatio="xMidYMid meet" version="1.0"><defs><clipPath id="13b7e619d9"><path d="M 14 17 L 225 17 L 225 231 L 14 231 Z M 14 17 " clip-rule="nonzero"/></clipPath><clipPath id="96f6696109"><path d="M -12.378906 214.042969 L 198.503906 -7.6875 L 270.238281 60.539062 L 59.355469 282.269531 Z M -12.378906 214.042969 " clip-rule="nonzero"/></clipPath><clipPath id="8dd91a5ae2"><path d="M -12.378906 214.042969 L 198.503906 -7.6875 L 270.238281 60.539062 L 59.355469 282.269531 Z M -12.378906 214.042969 " clip-rule="nonzero"/></clipPath><clipPath id="3f02e82093"><path d="M 6 138 L 105 138 L 105 235 L 6 235 Z M 6 138 " clip-rule="nonzero"/></clipPath><clipPath id="fb2a661a51"><path d="M -12.378906 214.042969 L 198.503906 -7.6875 L 270.238281 60.539062 L 59.355469 282.269531 Z M -12.378906 214.042969 " clip-rule="nonzero"/></clipPath><clipPath id="2daea62ef4"><path d="M -12.378906 214.042969 L 198.503906 -7.6875 L 270.238281 60.539062 L 59.355469 282.269531 Z M -12.378906 214.042969 " clip-rule="nonzero"/></clipPath></defs><rect x="-57.6" width="691.2" fill="#ffffff" y="-35.999999" height="431.999984" fill-opacity="1"/><rect x="-57.6" width="691.2" fill="#ffffff" y="-35.999999" height="431.999984" fill-opacity="1"/><g clip-path="url(#13b7e619d9)"><g clip-path="url(#96f6696109)"><g clip-path="url(#8dd91a5ae2)"><path fill="#000000" d="M 221.15625 18.820312 C 221.039062 18.902344 220.921875 19.011719 220.824219 19.160156 C 219.605469 20.878906 216.472656 24.972656 215.945312 25.519531 L 205.195312 38.234375 L 172.625 77.503906 C 156.09375 96.992188 138.753906 115.746094 120.578125 133.710938 C 102.460938 151.605469 83.511719 168.683594 63.695312 184.707031 C 57.84375 189.621094 51.914062 194.492188 45.851562 199.160156 C 41.835938 202.28125 37.75 205.292969 33.605469 208.234375 L 23.605469 214.867188 C 22.882812 215.339844 21.027344 216.476562 19.777344 217.246094 C 18.285156 217.484375 16.859375 218.242188 15.8125 219.484375 C 14.039062 221.585938 14.023438 223.328125 14.011719 224.054688 C 14 226.882812 15.308594 228.722656 17.421875 229.882812 C 18.328125 230.394531 20.226562 231.234375 22.894531 230.347656 C 24.183594 229.910156 28.792969 227.042969 30.65625 225.84375 L 41.136719 218.835938 C 46.488281 215.0625 51.722656 211.128906 56.898438 207.097656 C 62.042969 203.105469 67.128906 199.019531 72.144531 194.878906 C 91.828125 178.027344 110.613281 160.1875 128.484375 141.460938 C 146.320312 122.777344 163.246094 103.253906 179.351562 83.039062 L 210.824219 42.609375 C 213.136719 39.460938 215.527344 36.378906 217.695312 33.15625 C 218.640625 31.761719 219.480469 30.324219 220.359375 28.898438 C 220.800781 28.183594 223.226562 23.148438 224.136719 21.054688 C 224.324219 20.613281 224.472656 20.300781 224.535156 20.144531 C 224.714844 19.582031 224.734375 19.226562 224.699219 19.105469 C 224.53125 18.292969 224.164062 17.824219 223.6875 17.652344 C 223.289062 17.523438 222.671875 17.214844 221.980469 17.734375 C 221.5625 17.984375 221.269531 18.382812 221.15625 18.820312 Z M 26.277344 227.292969 L 26.308594 227.226562 L 26.230469 227.347656 Z M 26.050781 227.613281 L 26.128906 227.492188 L 26.03125 227.640625 Z M 26.050781 227.613281 " fill-opacity="1" fill-rule="evenodd"/></g></g></g><g clip-path="url(#3f02e82093)"><g clip-path="url(#fb2a661a51)"><g clip-path="url(#2daea62ef4)"><path fill="#000000" d="M 99.527344 226.878906 C 99.332031 226.621094 98.71875 226.335938 99.359375 226.371094 C 99.785156 226.382812 98.636719 226.242188 99.0625 226.121094 C 99.308594 226.046875 98.859375 225.074219 98.972656 225.375 C 99.019531 225.484375 98.742188 225.457031 98.585938 225.507812 C 93.558594 227.3125 80.128906 225.863281 77.863281 225.816406 C 68.5625 225.792969 59.246094 225.894531 49.957031 225.695312 C 43.824219 225.550781 37.707031 225.308594 31.605469 224.773438 L 19.964844 223.585938 L 32.6875 204.207031 C 36.457031 198.320312 53.453125 174.476562 62.320312 159.203125 C 66.480469 152.03125 68.582031 146.144531 68.410156 143.808594 C 68.148438 140.75 65.453125 138.476562 62.398438 138.734375 C 59.488281 138.984375 57.304688 141.410156 57.296875 144.261719 C 57.160156 144.261719 57.316406 144.625 57.324219 144.75 C 57.300781 144.585938 57.296875 144.425781 57.296875 144.261719 L 57.320312 144.261719 C 58.035156 144.398438 56.8125 145.929688 56.285156 147.078125 C 54.285156 151.550781 50.449219 158.121094 46.101562 165.113281 C 37.511719 178.929688 27.003906 194.292969 24.171875 198.847656 L 10.4375 220.601562 L 7.542969 224.527344 C 6.457031 225.894531 6.199219 227.734375 6.875 229.339844 C 7.5625 230.933594 9.042969 232.046875 10.785156 232.222656 L 30.890625 233.910156 C 37.199219 234.335938 43.519531 234.5 49.851562 234.515625 C 59.203125 234.535156 68.574219 234.203125 77.933594 234.019531 C 80.117188 233.949219 91.703125 234.351562 98.175781 232.914062 C 100.003906 232.496094 101.59375 232.0625 102.542969 231.292969 C 102.894531 231.011719 103.226562 230.808594 103.425781 230.46875 C 103.601562 230.203125 103.839844 230.054688 103.925781 229.761719 C 104.007812 229.554688 104.175781 229.441406 104.222656 229.25 C 104.246094 229.109375 104.402344 229.03125 104.367188 228.910156 C 104.144531 228.191406 104.671875 228.660156 104.128906 228.179688 C 103.351562 227.570312 105 227.644531 104.171875 227.335938 C 103.769531 227.183594 104.507812 227.019531 104.089844 226.945312 C 103.289062 226.800781 104.605469 226.410156 103.765625 226.257812 C 103.082031 226.140625 102.796875 225.164062 102.28125 225.257812 C 101.363281 224.761719 100.21875 225.132812 99.734375 226.0625 C 99.59375 226.3125 99.53125 226.605469 99.527344 226.878906 Z M 99.519531 227.082031 C 99.484375 227.121094 99.4375 227.152344 99.339844 227.183594 C 98.972656 227.289062 99.769531 227.359375 99.421875 227.527344 C 98.960938 227.742188 99.527344 227.617188 99.714844 227.777344 C 99.597656 227.5625 99.539062 227.332031 99.519531 227.082031 Z M 99.777344 227.898438 C 99.78125 227.949219 99.773438 228.011719 99.71875 228.101562 C 99.574219 228.328125 100.003906 228.367188 100.300781 228.453125 C 100.074219 228.3125 99.90625 228.101562 99.777344 227.898438 Z M 99.777344 227.898438 " fill-opacity="1" fill-rule="evenodd"/></g></g></g></svg>