<svg xmlns="http://www.w3.org/2000/svg" xmlns:xlink="http://www.w3.org/1999/xlink" width="768" zoomAndPan="magnify" viewBox="0 0 576 359.999987" height="480" preserveAspectRatio="xMidYMid meet" version="1.0"><defs><clipPath id="5cacfcb908"><path d="M 227.984375 95.875 L 470.234375 95.875 L 470.234375 338.125 L 227.984375 338.125 Z M 227.984375 95.875 " clip-rule="nonzero"/></clipPath><clipPath id="9adffd715f"><path d="M 126 87.535156 L 572.816406 87.535156 L 572.816406 334 L 126 334 Z M 126 87.535156 " clip-rule="nonzero"/></clipPath><clipPath id="e4ea2a6ed6"><path d="M 214 346 L 215 346 L 215 347.035156 L 214 347.035156 Z M 214 346 " clip-rule="nonzero"/></clipPath><clipPath id="0653b9facc"><path d="M 398 263 L 493 263 L 493 359 L 398 359 Z M 398 263 " clip-rule="nonzero"/></clipPath><clipPath id="6a4655647a"><path d="M 393.265625 266.953125 L 489.664062 258.6875 L 497.929688 355.082031 L 401.535156 363.351562 Z M 393.265625 266.953125 " clip-rule="nonzero"/></clipPath><clipPath id="42085985fd"><path d="M 393.265625 266.953125 L 489.664062 258.6875 L 497.929688 355.082031 L 401.535156 363.351562 Z M 393.265625 266.953125 " clip-rule="nonzero"/></clipPath><clipPath id="f83f896000"><path d="M 393.265625 266.953125 L 489.664062 258.6875 L 497.929688 355.082031 L 401.535156 363.351562 Z M 393.265625 266.953125 " clip-rule="nonzero"/></clipPath><clipPath id="79339e50b4"><path d="M 421 290 L 471 290 L 471 331 L 421 331 Z M 421 290 " clip-rule="nonzero"/></clipPath><clipPath id="1ffea8bfc7"><path d="M 393.265625 266.953125 L 489.664062 258.6875 L 497.929688 355.082031 L 401.535156 363.351562 Z M 393.265625 266.953125 " clip-rule="nonzero"/></clipPath><clipPath id="b3451b8a6a"><path d="M 393.265625 266.953125 L 489.664062 258.6875 L 497.929688 355.082031 L 401.535156 363.351562 Z M 393.265625 266.953125 " clip-rule="nonzero"/></clipPath><clipPath id="7f7fc783af"><path d="M 393.265625 266.953125 L 489.664062 258.6875 L 497.929688 355.082031 L 401.535156 363.351562 Z M 393.265625 266.953125 " clip-rule="nonzero"/></clipPath></defs><rect x="-57.6" width="691.2" fill="#ffffff" y="-35.999999" height="431.999984" fill-opacity="1"/><rect x="-57.6" width="691.2" fill="#ffffff" y="-35.999999" height="431.999984" fill-opacity="1"/><g clip-path="url(#5cacfcb908)"><path fill="#000000" d="M 260.070312 95.875 L 438.144531 95.875 C 455.867188 95.875 470.234375 110.242188 470.234375 127.964844 L 470.234375 306.039062 C 470.234375 323.761719 455.867188 338.125 438.144531 338.125 L 260.070312 338.125 C 242.347656 338.125 227.984375 323.761719 227.984375 306.039062 L 227.984375 127.964844 C 227.984375 110.242188 242.347656 95.875 260.070312 95.875 Z M 260.070312 95.875 " fill-opacity="1" fill-rule="nonzero"/></g><path fill="#ffffff" d="M 284.773438 281.140625 C 249.269531 245.636719 249.269531 188.171875 284.773438 152.667969 C 320.277344 117.160156 377.742188 117.164062 413.246094 152.667969 C 448.753906 188.167969 448.75 245.632812 413.246094 281.140625 C 377.746094 316.648438 320.28125 316.644531 284.773438 281.140625 Z M 349.011719 132.296875 C 302.359375 132.296875 264.402344 170.253906 264.402344 216.902344 C 264.402344 263.554688 302.359375 301.511719 349.011719 301.511719 C 395.660156 301.511719 433.617188 263.554688 433.617188 216.902344 C 433.617188 170.253906 395.660156 132.296875 349.011719 132.296875 Z M 349.011719 132.296875 " fill-opacity="1" fill-rule="nonzero"/><path fill="#ffffff" d="M 378.996094 190.027344 C 373.261719 188.902344 373.28125 180.742188 378.996094 179.503906 C 384.207031 178.457031 387.574219 184.921875 383.835938 188.554688 C 382.570312 189.824219 380.753906 190.375 378.996094 190.027344 Z M 378.996094 190.027344 " fill-opacity="1" fill-rule="nonzero"/><path fill="#ffffff" d="M 378.984375 270.730469 L 319.035156 270.730469 C 305.863281 270.714844 295.195312 260.042969 295.179688 246.875 L 295.179688 186.925781 C 295.195312 173.757812 305.863281 163.089844 319.035156 163.074219 L 378.984375 163.074219 C 392.152344 163.089844 402.820312 173.757812 402.835938 186.925781 L 402.835938 246.875 C 402.820312 260.042969 392.152344 270.714844 378.984375 270.730469 Z M 319.035156 169.3125 C 309.308594 169.324219 301.425781 177.207031 301.417969 186.929688 L 301.417969 246.875 C 301.425781 256.601562 309.308594 264.484375 319.035156 264.492188 L 378.984375 264.492188 C 388.707031 264.484375 396.589844 256.601562 396.601562 246.875 L 396.601562 186.925781 C 396.589844 177.199219 388.707031 169.320312 378.984375 169.308594 L 319.035156 169.308594 Z M 319.035156 169.3125 " fill-opacity="1" fill-rule="nonzero"/><path fill="#ffffff" d="M 349.011719 245.691406 C 333.109375 245.691406 320.21875 232.800781 320.21875 216.898438 C 320.21875 200.996094 333.109375 188.105469 349.011719 188.105469 C 364.910156 188.105469 377.796875 201.003906 377.796875 216.902344 C 377.78125 232.792969 364.902344 245.675781 349.011719 245.691406 Z M 349.011719 194.355469 C 336.558594 194.355469 326.460938 204.449219 326.460938 216.902344 C 326.460938 229.355469 336.558594 239.453125 349.011719 239.453125 C 361.464844 239.453125 371.558594 229.355469 371.558594 216.902344 C 371.542969 204.457031 361.457031 194.371094 349.011719 194.355469 Z M 349.011719 194.355469 " fill-opacity="1" fill-rule="nonzero"/><g clip-path="url(#9adffd715f)"><path fill="#000000" d="M 389.527344 92.332031 C 387.511719 92.464844 385.644531 92.257812 383.695312 92.675781 C 381.652344 93.113281 379.40625 92.601562 377.246094 92.582031 C 376.171875 92.570312 375.097656 92.714844 374.023438 92.800781 C 373.253906 92.867188 372.484375 92.988281 371.710938 93.019531 C 368.992188 93.113281 366.273438 93.140625 363.5625 93.277344 C 362.515625 93.324219 361.480469 93.589844 360.421875 93.703125 C 360.109375 93.742188 359.785156 93.609375 359.464844 93.550781 C 359.585938 93.304688 359.757812 93.074219 359.816406 92.820312 C 359.851562 92.6875 359.683594 92.363281 359.632812 92.363281 C 359.320312 92.398438 358.863281 92.390625 358.722656 92.589844 C 357.882812 93.800781 356.554688 93.734375 355.363281 93.914062 C 353.242188 94.238281 351.101562 94.378906 348.972656 94.636719 C 347.566406 94.808594 346.175781 95.105469 344.769531 95.265625 C 343 95.476562 341.203125 95.53125 339.441406 95.796875 C 337.199219 96.132812 334.972656 96.644531 332.730469 96.988281 C 331.367188 97.199219 329.96875 97.1875 328.609375 97.398438 C 327.011719 97.644531 325.433594 97.996094 323.847656 98.339844 C 322.972656 98.519531 322.125 98.863281 321.25 98.957031 C 320.566406 99.035156 319.917969 98.949219 319.632812 99.769531 C 319.605469 99.863281 319.308594 99.890625 319.128906 99.902344 C 317.65625 99.988281 316.191406 100.054688 314.714844 100.140625 C 314.6875 100.140625 314.660156 100.1875 314.628906 100.214844 C 313.230469 101.757812 311.339844 100.996094 309.675781 101.300781 C 308.601562 101.5 307.554688 101.902344 306.488281 102.167969 C 305.375 102.441406 304.226562 102.578125 303.121094 102.910156 C 301.125 103.507812 299.175781 104.289062 297.160156 104.824219 C 295.980469 105.136719 294.972656 106.316406 293.554688 105.660156 C 293.441406 105.601562 293.257812 105.652344 293.117188 105.699219 C 291.414062 106.328125 289.742188 107.023438 288.011719 107.566406 C 286.582031 108.011719 285.089844 108.257812 283.644531 108.640625 C 282.789062 108.867188 281.960938 109.191406 281.113281 109.449219 C 279.480469 109.945312 277.949219 110.867188 276.132812 110.726562 C 275.789062 110.695312 275.21875 110.914062 275.105469 111.171875 C 274.667969 112.152344 273.867188 112.113281 273.058594 112.058594 C 272.128906 111.992188 271.421875 112.398438 270.605469 112.78125 C 269.113281 113.484375 267.46875 113.855469 265.878906 114.351562 C 265.574219 114.445312 265.230469 114.457031 264.945312 114.589844 C 263.96875 115.085938 263.054688 115.742188 262.027344 116.121094 C 261 116.503906 259.820312 116.511719 258.804688 116.914062 C 257.929688 117.253906 257.167969 117.910156 256.347656 118.40625 C 256.140625 118.53125 255.902344 118.636719 255.675781 118.703125 C 253.476562 119.398438 251.28125 120.082031 249.082031 120.769531 C 248.976562 120.796875 248.789062 120.71875 248.75 120.777344 C 247.515625 122.460938 245.335938 122.359375 243.757812 123.414062 C 243.121094 123.84375 242.3125 124.433594 241.664062 124.335938 C 239.523438 124.042969 238.394531 125.746094 236.785156 126.480469 C 235.570312 127.03125 234.246094 127.363281 233.019531 127.898438 C 232.171875 128.257812 231.421875 128.839844 230.605469 129.269531 C 228.75 130.230469 226.894531 131.183594 225.019531 132.105469 C 224.582031 132.324219 224.0625 132.382812 223.632812 132.609375 C 222.511719 133.230469 221.425781 133.921875 220.304688 134.542969 C 218.34375 135.617188 216.367188 136.65625 214.398438 137.710938 C 212.402344 138.789062 210.355469 139.796875 208.425781 140.976562 C 206.160156 142.347656 204.039062 143.96875 201.738281 145.269531 C 200.789062 145.8125 199.808594 146.328125 198.847656 146.859375 C 198.011719 147.328125 197.355469 147.890625 196.6875 148.527344 C 196.269531 148.9375 195.652344 149.125 195.128906 149.441406 C 194.484375 149.832031 193.855469 150.238281 193.226562 150.648438 C 191.960938 151.46875 190.6875 152.269531 189.441406 153.113281 C 188.71875 153.609375 188.054688 154.179688 187.351562 154.703125 C 185.980469 155.703125 184.589844 156.683594 183.222656 157.695312 C 182.195312 158.457031 181.214844 159.265625 180.199219 160.027344 C 178.371094 161.398438 176.5 162.710938 174.710938 164.128906 C 173.710938 164.917969 172.863281 165.890625 171.90625 166.71875 C 169.242188 169.03125 166.453125 171.210938 163.90625 173.640625 C 160.9375 176.476562 157.761719 179.140625 155.367188 182.550781 C 154.996094 183.082031 154.289062 183.367188 153.871094 183.871094 C 152.664062 185.339844 151.515625 186.863281 150.34375 188.367188 C 150.230469 188.507812 150.171875 188.699219 150.039062 188.8125 C 148.003906 190.660156 146.597656 192.992188 145.054688 195.230469 C 143.277344 197.828125 141.898438 200.683594 140.167969 203.273438 C 138.617188 205.585938 137.941406 208.183594 136.800781 210.613281 C 135.933594 212.460938 135.335938 214.457031 134.839844 216.4375 C 134.101562 219.476562 133.492188 222.550781 132.941406 225.625 C 132.234375 229.519531 131.722656 233.441406 131.769531 237.410156 C 131.808594 240.53125 131.597656 243.664062 131.828125 246.765625 C 132.027344 249.5 132.625 252.210938 133.167969 254.90625 C 133.578125 256.933594 134.175781 258.914062 134.707031 260.914062 C 135.5625 264.09375 137.125 266.957031 138.777344 269.765625 C 140.300781 272.363281 141.925781 274.90625 143.640625 277.371094 C 144.683594 278.886719 145.929688 280.285156 147.195312 281.628906 C 148.890625 283.4375 150.589844 285.253906 152.457031 286.871094 C 154.777344 288.882812 157.277344 290.679688 159.703125 292.574219 C 159.875 292.707031 160.0625 292.859375 160.253906 292.890625 C 162.15625 293.136719 163.355469 294.640625 164.90625 295.496094 C 166.890625 296.601562 168.859375 297.761719 170.828125 298.894531 C 171.199219 299.113281 171.636719 299.285156 171.90625 299.589844 C 172.65625 300.457031 173.671875 300.769531 174.691406 301.179688 C 176.355469 301.855469 177.933594 302.75 179.589844 303.464844 C 182.898438 304.882812 186.246094 306.195312 189.554688 307.617188 C 190.984375 308.226562 192.3125 309.070312 193.761719 309.644531 C 195.242188 310.222656 196.804688 310.585938 198.335938 311.042969 C 199.828125 311.5 201.3125 311.964844 202.804688 312.414062 C 204.574219 312.9375 206.351562 313.441406 208.121094 313.964844 C 211.289062 314.898438 214.4375 315.878906 217.613281 316.753906 C 218.828125 317.085938 220.125 317.125 221.367188 317.382812 C 223.984375 317.914062 226.582031 318.496094 229.1875 319.078125 C 231.109375 319.503906 233.011719 320.011719 234.941406 320.390625 C 236.578125 320.714844 238.25 320.886719 239.90625 321.144531 C 241.875 321.457031 243.832031 321.800781 245.800781 322.105469 C 246.886719 322.277344 247.980469 322.445312 249.074219 322.503906 C 251.011719 322.609375 252.933594 322.695312 254.816406 323.285156 C 255.691406 323.5625 256.757812 323.226562 257.652344 323.464844 C 260.25 324.140625 263.035156 323.398438 265.546875 324.570312 C 265.667969 324.625 265.851562 324.578125 266.003906 324.578125 C 267.085938 324.578125 268.171875 324.550781 269.246094 324.589844 C 270.546875 324.636719 271.851562 324.730469 273.164062 324.808594 C 276.691406 325.035156 280.230469 325.265625 283.757812 325.492188 C 284.71875 325.558594 285.679688 325.691406 286.640625 325.710938 C 291.242188 325.808594 295.847656 325.863281 300.441406 325.960938 C 301.914062 325.988281 303.378906 326.179688 304.851562 326.167969 C 310.664062 326.121094 316.476562 326.046875 322.285156 325.949219 C 324.433594 325.910156 326.574219 325.816406 328.714844 325.722656 C 331.789062 325.589844 334.847656 325.4375 337.921875 325.265625 C 340.375 325.132812 342.839844 324.960938 345.292969 324.808594 C 347.859375 324.65625 350.4375 324.523438 353.003906 324.339844 C 355.925781 324.132812 358.855469 323.914062 361.765625 323.65625 C 364.921875 323.378906 368.078125 323.046875 371.238281 322.742188 C 373.777344 322.503906 376.324219 322.332031 378.855469 322.039062 C 381.488281 321.722656 384.160156 321.476562 386.730469 320.839844 C 388.480469 320.410156 390.21875 320.464844 391.960938 320.210938 C 394.015625 319.90625 396.058594 319.589844 398.113281 319.296875 C 400.3125 318.980469 402.515625 318.707031 404.722656 318.371094 C 406.550781 318.097656 408.367188 317.792969 410.183594 317.457031 C 412.132812 317.105469 414.0625 316.695312 416.011719 316.316406 C 417.5625 316.011719 419.121094 315.707031 420.671875 315.402344 C 422.613281 315.023438 424.5625 314.667969 426.492188 314.25 C 428.765625 313.753906 431.019531 313.195312 433.273438 312.652344 C 436.394531 311.898438 439.523438 311.15625 442.632812 310.355469 C 445.457031 309.632812 448.28125 308.902344 451.070312 308.054688 C 453.808594 307.226562 456.507812 306.253906 459.21875 305.339844 C 460.960938 304.75 462.691406 304.132812 464.441406 303.558594 C 466.230469 302.980469 468.054688 302.523438 469.804688 301.847656 C 472.011719 300.988281 474.140625 299.960938 476.308594 299.019531 C 476.929688 298.753906 477.566406 298.542969 478.183594 298.285156 C 480.902344 297.117188 483.625 295.933594 486.351562 294.773438 C 486.707031 294.621094 487.132812 294.632812 487.484375 294.46875 C 489.691406 293.441406 491.886719 292.382812 494.085938 291.328125 C 497.234375 289.804688 500.410156 288.328125 503.519531 286.730469 C 505.792969 285.558594 508.019531 284.285156 510.207031 282.960938 C 512.59375 281.511719 514.914062 279.941406 517.273438 278.4375 C 519.144531 277.238281 521.085938 276.144531 522.882812 274.847656 C 526.222656 272.449219 529.472656 269.929688 532.792969 267.492188 C 537.691406 263.894531 541.894531 259.53125 546.15625 255.238281 C 547.382812 254.011719 548.789062 252.871094 549.675781 251.421875 C 551.738281 248.042969 554.945312 245.585938 556.789062 242.007812 C 558.699219 238.324219 560.554688 234.660156 562.066406 230.773438 C 563.371094 227.421875 563.988281 223.929688 564.929688 220.503906 C 565.347656 219 565.300781 217.363281 565.425781 215.773438 C 565.527344 214.390625 565.652344 213.011719 565.644531 211.621094 C 565.625 207.488281 565.691406 203.359375 564.53125 199.332031 C 563.941406 197.304688 563.511719 195.238281 563.027344 193.191406 C 562.132812 189.402344 560.546875 185.890625 558.785156 182.453125 C 557.757812 180.464844 556.808594 178.417969 555.550781 176.582031 C 553.953125 174.257812 552.121094 172.085938 550.304688 169.925781 C 549.113281 168.507812 547.847656 167.148438 546.5 165.890625 C 543.902344 163.492188 541.285156 161.09375 538.539062 158.863281 C 536.292969 157.046875 533.878906 155.417969 531.460938 153.828125 C 529.199219 152.335938 526.867188 150.945312 524.511719 149.613281 C 521.761719 148.058594 519.023438 146.480469 516.160156 145.167969 C 511.15625 142.882812 506.070312 140.777344 501 138.625 C 498.699219 137.644531 496.367188 136.722656 494.027344 135.816406 C 491.488281 134.835938 488.949219 133.875 486.382812 132.992188 C 484.308594 132.277344 482.179688 131.714844 480.085938 131.039062 C 479.078125 130.714844 478.136719 130.191406 477.117188 129.90625 C 474.511719 129.171875 471.8125 128.734375 469.292969 127.785156 C 466.476562 126.71875 463.507812 126.347656 460.675781 125.375 C 457.28125 124.214844 453.75 123.433594 450.261719 122.585938 C 447.75 121.96875 445.210938 121.511719 442.679688 120.96875 C 441.3125 120.671875 439.960938 120.320312 438.589844 120.0625 C 436.738281 119.722656 434.871094 119.433594 433.019531 119.140625 C 431.4375 118.882812 429.859375 118.644531 428.28125 118.398438 C 426.921875 118.1875 425.550781 117.988281 424.191406 117.757812 C 423.527344 117.644531 422.871094 117.417969 422.203125 117.320312 C 421.347656 117.199219 420.484375 117.167969 419.628906 117.074219 C 419.464844 117.054688 419.324219 116.875 419.152344 116.847656 C 418.582031 116.722656 418.019531 116.589844 417.441406 116.53125 C 416.574219 116.457031 415.699219 116.445312 414.832031 116.390625 C 414.632812 116.371094 414.425781 116.152344 414.246094 116.179688 C 412.152344 116.578125 410.15625 115.644531 408.089844 115.695312 C 407.796875 115.703125 407.320312 115.589844 407.214844 115.390625 C 406.730469 114.457031 406.054688 114.875 405.378906 115.007812 C 404.960938 115.09375 404.417969 115.191406 404.097656 115 C 402.632812 114.132812 400.96875 114.457031 399.417969 114.132812 C 397.230469 113.667969 395.003906 113.34375 392.796875 112.972656 C 392.332031 112.894531 391.847656 112.875 391.371094 112.828125 C 391.695312 112.429688 392.066406 112.058594 392.320312 111.609375 C 392.4375 111.417969 392.425781 111 392.292969 110.867188 C 392.160156 110.734375 391.703125 110.714844 391.550781 110.839844 C 390.488281 111.734375 389.726562 111.019531 388.753906 110.574219 C 387.804688 110.132812 386.636719 110.152344 385.570312 109.980469 C 384.988281 109.886719 384.410156 109.839844 383.828125 109.746094 C 383.648438 109.714844 383.496094 109.582031 383.324219 109.507812 C 383.4375 109.289062 383.496094 108.933594 383.675781 108.867188 C 384.398438 108.582031 385.160156 108.171875 385.902344 108.191406 C 389.125 108.257812 392.371094 108.269531 395.554688 108.667969 C 398.988281 109.097656 402.402344 109.496094 405.875 109.59375 C 408.355469 109.660156 410.828125 110.304688 413.300781 110.667969 C 413.671875 110.726562 414.074219 110.726562 414.445312 110.667969 C 417.097656 110.277344 419.628906 111.144531 422.214844 111.371094 C 424.222656 111.554688 426.226562 111.78125 428.226562 112.058594 C 430.632812 112.390625 433.027344 112.820312 435.433594 113.179688 C 436.269531 113.304688 437.136719 113.296875 437.964844 113.4375 C 440.816406 113.90625 443.679688 114.351562 446.511719 114.914062 C 449.035156 115.417969 451.535156 116.066406 454.046875 116.636719 C 457.117188 117.332031 460.199219 117.996094 463.269531 118.710938 C 465.773438 119.292969 468.273438 119.882812 470.757812 120.550781 C 473.324219 121.234375 475.882812 121.976562 478.429688 122.765625 C 481.710938 123.785156 484.984375 124.824219 488.238281 125.925781 C 491.917969 127.175781 495.597656 128.429688 499.222656 129.832031 C 503.167969 131.351562 507.046875 133.046875 510.957031 134.675781 C 512.460938 135.304688 513.953125 135.921875 515.425781 136.597656 C 516.617188 137.140625 517.785156 137.730469 518.945312 138.332031 C 521.78125 139.777344 524.632812 141.207031 527.4375 142.71875 C 529.324219 143.738281 531.128906 144.890625 532.957031 145.996094 C 534.695312 147.050781 536.492188 148.03125 538.140625 149.230469 C 539.871094 150.476562 541.429688 151.964844 543.09375 153.296875 C 543.589844 153.695312 544.261719 153.875 544.730469 154.296875 C 546.136719 155.542969 547.460938 156.882812 548.855469 158.152344 C 549.476562 158.710938 550.273438 159.101562 550.835938 159.710938 C 553.871094 163.015625 557.152344 166.097656 559.539062 169.964844 C 560.546875 171.59375 561.867188 173.03125 562.808594 174.695312 C 563.921875 176.65625 564.789062 178.761719 565.757812 180.808594 C 566.5 182.367188 567.222656 183.949219 567.972656 185.5 C 568.820312 187.25 569.429688 189.058594 569.601562 191.019531 C 569.648438 191.554688 570.09375 192.039062 570.246094 192.574219 C 571.015625 195.171875 571.816406 197.742188 571.890625 200.503906 C 571.929688 201.921875 572.386719 203.3125 572.519531 204.730469 C 572.59375 205.527344 572.347656 206.347656 572.328125 207.15625 C 572.292969 208.585938 572.359375 210.011719 572.308594 211.441406 C 572.253906 213.296875 572.347656 215.183594 571.285156 216.855469 C 571.160156 217.058594 571.113281 217.390625 571.1875 217.609375 C 571.757812 219.285156 571.1875 220.835938 570.710938 222.386719 C 569.628906 225.949219 568.667969 229.554688 567.382812 233.050781 C 566.585938 235.230469 565.339844 237.246094 564.179688 239.285156 C 562.332031 242.53125 560.382812 245.691406 557.84375 248.492188 C 556.445312 250.03125 555.011719 251.613281 553.953125 253.476562 C 553.308594 254.609375 552.414062 255.648438 551.472656 256.570312 C 549.695312 258.332031 547.78125 259.960938 545.976562 261.683594 C 545.566406 262.074219 545.386719 262.703125 544.976562 263.09375 C 542.476562 265.492188 539.984375 267.910156 537.386719 270.222656 C 535.464844 271.925781 533.527344 273.667969 531.347656 274.992188 C 530.53125 275.488281 529.980469 276.097656 529.292969 276.601562 C 525.757812 279.246094 521.941406 281.523438 518.335938 284.09375 C 515.617188 286.023438 512.71875 287.652344 509.835938 289.308594 C 508.351562 290.167969 506.933594 291.136719 505.414062 291.910156 C 504.367188 292.441406 502.835938 292.078125 502.351562 293.640625 C 499.34375 294.601562 496.902344 296.640625 494.027344 297.886719 C 490.175781 299.5625 486.457031 301.5625 482.625 303.265625 C 480.667969 304.132812 478.554688 304.675781 476.511719 305.359375 C 476.207031 305.464844 475.796875 305.417969 475.585938 305.605469 C 472.667969 308.234375 468.722656 308.40625 465.34375 309.9375 C 463.898438 310.59375 462.453125 311.269531 460.941406 311.757812 C 459.382812 312.261719 457.746094 312.519531 456.15625 312.9375 C 455.273438 313.175781 454.425781 313.554688 453.542969 313.8125 C 452.621094 314.089844 451.667969 314.515625 450.746094 314.46875 C 449.539062 314.414062 448.699219 315.136719 447.683594 315.429688 C 446.246094 315.851562 444.792969 316.203125 443.347656 316.59375 C 442.519531 316.8125 441.703125 317.039062 440.882812 317.277344 C 439.484375 317.6875 438.097656 318.105469 436.699219 318.523438 C 436.671875 318.535156 436.652344 318.589844 436.613281 318.601562 C 435.148438 318.847656 433.683594 319.097656 432.21875 319.332031 C 432 319.371094 431.714844 319.257812 431.542969 319.351562 C 428.957031 320.789062 425.980469 320.617188 423.210938 321.351562 C 419.578125 322.324219 415.851562 322.96875 412.140625 323.683594 C 409.402344 324.207031 406.644531 324.609375 403.898438 325.074219 C 401.757812 325.4375 399.636719 325.882812 397.496094 326.207031 C 395.535156 326.503906 393.558594 326.636719 391.597656 326.921875 C 389.230469 327.261719 386.882812 327.703125 384.515625 328.042969 C 383.058594 328.253906 381.585938 328.339844 380.121094 328.519531 C 377.761719 328.804688 375.414062 329.148438 373.054688 329.425781 C 371.949219 329.558594 370.828125 329.566406 369.714844 329.664062 C 366.292969 329.957031 362.867188 330.273438 359.445312 330.578125 C 357.675781 330.730469 355.90625 330.917969 354.136719 331.023438 C 351.035156 331.203125 347.925781 331.320312 344.816406 331.5 C 343.011719 331.605469 341.203125 331.804688 339.394531 331.945312 C 339.148438 331.964844 338.710938 331.945312 338.664062 331.84375 C 338.179688 330.492188 337.875 331.710938 337.425781 331.863281 C 336.75 332.089844 335.992188 332.128906 335.269531 332.183594 C 333.925781 332.289062 332.585938 332.375 331.234375 332.414062 C 328.019531 332.507812 324.804688 332.566406 321.59375 332.652344 C 319.40625 332.707031 317.226562 332.792969 315.039062 332.878906 C 313.507812 332.9375 311.976562 333.070312 310.4375 333.097656 C 308.363281 333.136719 306.289062 333.109375 304.214844 333.109375 C 302.894531 333.109375 301.570312 333.605469 300.242188 332.925781 C 299.839844 332.726562 299.175781 333.109375 298.644531 333.097656 C 294.25 333.042969 289.84375 332.996094 285.453125 332.871094 C 282.371094 332.785156 279.289062 332.625 276.207031 332.414062 C 272.46875 332.15625 268.742188 331.832031 265.023438 331.5 C 261.867188 331.222656 258.707031 330.890625 255.550781 330.585938 C 253.894531 330.425781 252.164062 330.527344 250.605469 330.070312 C 247.769531 329.234375 244.792969 329.511719 241.949219 328.605469 C 239.726562 327.890625 237.261719 327.941406 234.914062 327.597656 C 233.601562 327.40625 232.296875 327.082031 230.992188 326.84375 C 229.433594 326.558594 227.855469 326.3125 226.304688 325.996094 C 224.582031 325.644531 222.871094 325.253906 221.167969 324.855469 C 218.90625 324.332031 216.613281 323.914062 214.398438 323.21875 C 211.820312 322.410156 209.128906 322.132812 206.570312 321.113281 C 205.019531 320.503906 203.347656 320.105469 201.769531 319.417969 C 201.027344 319.097656 200.046875 319.363281 199.257812 319.105469 C 195.824219 318.011719 192.398438 316.859375 189.003906 315.660156 C 187.976562 315.296875 187.0625 314.621094 186.054688 314.203125 C 182.839844 312.851562 179.550781 311.652344 176.382812 310.1875 C 174.101562 309.128906 171.972656 307.75 169.765625 306.511719 C 167.566406 305.285156 165.3125 304.140625 163.164062 302.816406 C 160.902344 301.429688 158.722656 299.875 156.527344 298.371094 C 155.382812 297.589844 154.289062 296.753906 153.167969 295.964844 C 152.199219 295.277344 151.113281 294.707031 150.257812 293.898438 C 148.394531 292.164062 146.636719 290.308594 144.828125 288.5 C 144.046875 287.71875 143.296875 286.921875 142.488281 286.167969 C 140.558594 284.367188 139.253906 282.101562 137.683594 280.027344 C 135.335938 276.925781 133.652344 273.460938 131.914062 270.03125 C 130.734375 267.710938 129.574219 265.3125 128.867188 262.828125 C 127.984375 259.714844 127.554688 256.476562 126.96875 253.289062 C 126.035156 248.222656 126.148438 243.082031 126.339844 237.980469 C 126.472656 234.335938 127.222656 230.71875 127.640625 227.082031 C 128.230469 221.929688 129.695312 216.980469 131.371094 212.105469 C 132.453125 208.945312 134.089844 205.976562 135.429688 202.902344 C 136.019531 201.539062 136.449219 200.113281 137.066406 198.769531 C 137.457031 197.933594 138.039062 197.179688 138.570312 196.417969 C 140.109375 194.230469 141.640625 192.03125 143.230469 189.871094 C 144.855469 187.660156 146.519531 185.492188 148.203125 183.339844 C 149.296875 181.941406 150.4375 180.578125 151.609375 179.246094 C 152.3125 178.445312 153.113281 177.742188 153.851562 176.980469 C 155.699219 175.078125 157.449219 173.078125 159.378906 171.257812 C 161.757812 169.023438 164.285156 166.9375 166.742188 164.765625 C 168.917969 162.835938 171.03125 160.824219 173.265625 158.96875 C 175.167969 157.390625 177.210938 155.980469 179.191406 154.496094 C 181.140625 153.03125 183.070312 151.535156 185.058594 150.125 C 186.789062 148.90625 188.59375 147.804688 190.363281 146.621094 C 192.703125 145.0625 195.015625 143.480469 197.355469 141.929688 C 198.21875 141.359375 199.105469 140.824219 199.988281 140.28125 C 202.089844 138.988281 204.175781 137.675781 206.292969 136.425781 C 208.101562 135.371094 209.976562 134.429688 211.792969 133.398438 C 214.511719 131.859375 217.214844 130.269531 219.941406 128.726562 C 220.769531 128.257812 221.664062 127.898438 222.5 127.441406 C 223.015625 127.15625 223.386719 126.917969 222.777344 126.195312 C 222.207031 125.519531 221.976562 124.558594 221.605469 123.710938 C 221.558594 123.605469 221.636719 123.339844 221.664062 123.339844 C 221.84375 123.328125 222.121094 123.308594 222.1875 123.414062 C 222.613281 124.03125 223.101562 124.640625 223.355469 125.335938 C 223.679688 126.230469 224.128906 126.59375 224.984375 126.183594 C 226.582031 125.421875 228.132812 124.566406 229.71875 123.796875 C 230.890625 123.222656 232.097656 122.71875 233.285156 122.1875 C 234.3125 121.730469 235.332031 121.214844 236.386719 120.835938 C 237.0625 120.585938 236.917969 120.207031 236.652344 119.863281 C 236.261719 119.347656 235.777344 118.929688 235.339844 118.445312 C 235.253906 118.351562 235.234375 118.179688 235.1875 118.046875 C 235.359375 118.054688 235.585938 117.988281 235.683594 118.074219 C 236.074219 118.4375 236.566406 118.777344 236.765625 119.234375 C 237.175781 120.195312 237.871094 120.015625 238.496094 119.75 C 241.359375 118.539062 244.175781 117.234375 247.046875 116.046875 C 250.5 114.609375 254 113.285156 257.453125 111.859375 C 258.917969 111.25 260.316406 110.46875 261.761719 109.820312 C 262.179688 109.628906 262.691406 109.695312 263.140625 109.542969 C 266.992188 108.242188 270.816406 106.859375 274.675781 105.59375 C 276.929688 104.851562 279.25 104.289062 281.535156 103.605469 C 283.5 103.015625 285.441406 102.328125 287.421875 101.785156 C 290.417969 100.96875 293.429688 100.261719 296.425781 99.472656 C 298.726562 98.863281 301 98.140625 303.304688 97.558594 C 305.59375 96.988281 307.925781 96.539062 310.234375 96.035156 C 310.96875 95.875 311.699219 95.703125 312.421875 95.511719 C 314.734375 94.921875 317.046875 94.292969 319.367188 93.761719 C 320.261719 93.5625 321.222656 93.648438 322.125 93.496094 C 323.863281 93.210938 325.585938 92.808594 327.328125 92.523438 C 328.800781 92.277344 330.285156 92.113281 331.769531 91.90625 C 332.851562 91.753906 333.976562 91.722656 335 91.402344 C 335.589844 91.210938 336.019531 90.523438 336.523438 90.066406 C 336.78125 89.828125 337.054688 89.621094 337.324219 89.390625 C 337.359375 89.660156 337.332031 89.964844 337.457031 90.171875 C 337.597656 90.410156 337.902344 90.761719 338.082031 90.734375 C 340.453125 90.390625 342.808594 89.964844 345.179688 89.628906 C 346.320312 89.46875 347.480469 89.488281 348.628906 89.382812 C 350.074219 89.25 351.511719 89.085938 352.949219 88.925781 C 355.726562 88.621094 358.492188 88.269531 361.28125 88.03125 C 362.660156 87.917969 364.058594 88.050781 365.4375 88.003906 C 369.191406 87.867188 372.949219 87.679688 376.695312 87.5625 C 377.65625 87.535156 378.617188 87.734375 379.578125 87.773438 C 382.613281 87.867188 385.644531 87.917969 388.6875 88.011719 C 392.160156 88.117188 395.585938 88.648438 399.027344 89.078125 C 400.597656 89.277344 402.214844 89.34375 403.792969 89.621094 C 405.816406 89.972656 407.835938 90.542969 409.878906 90.640625 C 411.78125 90.722656 412.742188 92.628906 414.566406 92.667969 C 414.671875 92.667969 414.871094 93.046875 414.84375 93.085938 C 414.691406 93.265625 414.472656 93.503906 414.28125 93.496094 C 413.472656 93.464844 412.664062 93.378906 411.855469 93.285156 C 409.925781 93.066406 408.003906 92.789062 406.074219 92.609375 C 403.34375 92.34375 400.605469 91.914062 397.886719 92 C 396.289062 92.046875 394.679688 91.410156 393.007812 92.238281 C 392.140625 92.667969 390.800781 92.324219 389.527344 92.332031 M 465.003906 123.0625 C 464.699219 123.136719 464.382812 123.222656 464.078125 123.308594 C 464.070312 123.308594 464.109375 123.441406 464.117188 123.519531 C 464.449219 123.367188 464.785156 123.214844 465.230469 123.0625 C 465.421875 123.015625 465.609375 122.96875 465.800781 122.917969 C 465.773438 122.824219 465.742188 122.730469 465.714844 122.632812 C 465.515625 122.777344 465.316406 122.917969 465.003906 123.0625 M 511.851562 285.738281 C 511.777344 285.890625 511.707031 286.054688 511.632812 286.207031 C 511.8125 286.167969 512.023438 286.167969 512.175781 286.082031 C 513.375 285.40625 514.570312 284.703125 515.769531 284.015625 C 515.980469 283.894531 516.207031 283.796875 516.417969 283.664062 C 516.425781 283.65625 516.300781 283.339844 516.253906 283.351562 C 515.980469 283.386719 515.675781 283.417969 515.425781 283.539062 C 515.046875 283.742188 514.714844 284.027344 514.351562 284.246094 C 513.5625 284.722656 512.765625 285.167969 511.851562 285.738281 M 491.347656 129.476562 C 491.082031 129.6875 490.8125 129.90625 490.546875 130.117188 C 490.8125 130.210938 491.097656 130.421875 491.335938 130.375 C 491.773438 130.289062 492.183594 130.058594 492.601562 129.886719 C 492.507812 129.773438 492.441406 129.601562 492.328125 129.5625 C 492.089844 129.496094 491.832031 129.507812 491.347656 129.476562 M 472.90625 124.328125 C 472.601562 124.605469 472.289062 124.878906 472.003906 125.175781 C 471.984375 125.195312 472.222656 125.566406 472.316406 125.554688 C 472.582031 125.527344 473 125.433594 473.046875 125.269531 C 473.164062 124.945312 473.046875 124.566406 472.90625 124.328125 M 535.675781 154.363281 C 535.960938 154.457031 536.246094 154.550781 536.53125 154.648438 C 536.4375 154.285156 536.398438 153.90625 536.238281 153.570312 C 536.152344 153.402344 535.882812 153.316406 535.695312 153.191406 C 535.683594 153.503906 535.683594 153.820312 535.675781 154.363281 M 567.175781 189.785156 C 567.164062 190.003906 567.144531 190.210938 567.136719 190.429688 C 567.46875 190.34375 567.8125 190.269531 568.144531 190.183594 C 567.898438 190.058594 567.648438 189.917969 567.175781 189.785156 M 393.644531 324.265625 C 393.738281 324.378906 393.835938 324.492188 393.921875 324.609375 C 393.957031 324.246094 394.023438 323.882812 394.023438 323.523438 C 394.023438 323.464844 393.777344 323.398438 393.652344 323.339844 C 393.652344 323.570312 393.652344 323.808594 393.644531 324.265625 M 227.445312 126.964844 C 227.683594 127.117188 227.914062 127.269531 228.160156 127.394531 C 228.179688 127.402344 228.332031 127.144531 228.417969 127.011719 C 228.132812 126.957031 227.847656 126.898438 227.445312 126.964844 M 438.085938 115.378906 C 438.316406 115.457031 438.554688 115.5625 438.792969 115.570312 C 438.847656 115.570312 438.925781 115.285156 438.980469 115.121094 C 438.722656 115.171875 438.457031 115.21875 438.085938 115.378906 M 480.808594 128.5625 C 480.703125 128.773438 480.609375 128.972656 480.503906 129.183594 C 480.78125 129.105469 481.066406 129.019531 481.339844 128.945312 C 481.246094 128.8125 481.140625 128.6875 480.808594 128.5625 M 460.882812 123.0625 C 460.703125 123.1875 460.53125 123.320312 460.351562 123.441406 C 460.484375 123.519531 460.703125 123.671875 460.722656 123.652344 C 460.875 123.472656 460.988281 123.261719 460.882812 123.0625 M 525.59375 143.359375 C 525.421875 143.167969 525.261719 142.976562 525.089844 142.785156 C 525.03125 142.890625 524.898438 143.082031 524.917969 143.089844 C 525.089844 143.234375 525.289062 143.347656 525.59375 143.359375 M 190.6875 149.089844 C 190.964844 149.191406 191.230469 149.308594 191.503906 149.410156 C 191.535156 149.316406 191.574219 149.222656 191.601562 149.117188 C 191.335938 149.070312 191.066406 149.023438 190.6875 149.089844 M 512.765625 283.457031 C 512.917969 283.53125 513.078125 283.597656 513.230469 283.675781 C 513.269531 283.492188 513.304688 283.304688 513.34375 283.121094 C 513.191406 283.1875 513.039062 283.265625 512.765625 283.457031 M 472.792969 126.5 C 472.914062 126.652344 473.039062 126.804688 473.164062 126.957031 C 473.230469 126.890625 473.296875 126.824219 473.363281 126.753906 C 473.210938 126.632812 473.058594 126.507812 472.792969 126.5 M 435.339844 114.695312 C 435.175781 114.582031 435.015625 114.464844 434.855469 114.351562 C 434.785156 114.457031 434.71875 114.5625 434.652344 114.65625 C 434.84375 114.703125 435.035156 114.761719 435.339844 114.695312 M 527.886719 274.050781 C 528.078125 274.242188 528.257812 274.421875 528.449219 274.613281 C 528.496094 274.5625 528.570312 274.476562 528.570312 274.476562 C 528.382812 274.289062 528.191406 274.117188 527.886719 274.050781 M 465.925781 125.128906 C 465.839844 124.976562 465.761719 124.832031 465.675781 124.679688 C 465.574219 124.785156 465.46875 124.890625 465.363281 124.996094 C 465.507812 125.082031 465.660156 125.15625 465.925781 125.128906 M 326.757812 94.511719 C 326.804688 94.703125 326.851562 94.894531 326.898438 95.085938 C 326.992188 95.054688 327.089844 95.027344 327.183594 95 C 327.078125 94.800781 326.976562 94.597656 326.757812 94.511719 Z M 326.757812 94.511719 " fill-opacity="1" fill-rule="nonzero"/></g><path fill="#000000" d="M 347.203125 323.863281 C 347.070312 323.351562 346.957031 322.882812 346.9375 322.429688 C 346.929688 322.246094 347.136719 322.066406 347.242188 321.886719 C 347.367188 322.007812 347.507812 322.113281 347.601562 322.265625 C 348.050781 322.980469 347.890625 323.75 347.203125 323.863281 Z M 347.203125 323.863281 " fill-opacity="1" fill-rule="nonzero"/><path fill="#000000" d="M 223.726562 316.410156 C 223.539062 316.792969 223.40625 317.125 223.28125 317.449219 C 223.1875 317.078125 223.082031 316.707031 222.996094 316.324219 C 222.984375 316.277344 223.042969 316.203125 223.089844 316.144531 C 223.320312 315.832031 223.554688 315.515625 223.792969 315.210938 C 223.785156 315.59375 223.785156 315.972656 223.726562 316.410156 Z M 223.726562 316.410156 " fill-opacity="1" fill-rule="nonzero"/><path fill="#000000" d="M 495.644531 126.328125 C 495.777344 126.195312 495.863281 126.128906 495.941406 126.050781 C 495.824219 126.382812 495.742188 126.738281 495.589844 127.050781 C 495.558594 127.117188 495.292969 127.078125 495.140625 127.089844 C 495.292969 126.851562 495.4375 126.621094 495.644531 126.328125 Z M 495.644531 126.328125 " fill-opacity="1" fill-rule="nonzero"/><path fill="#000000" d="M 203.738281 191.394531 C 204.03125 191.601562 204.203125 191.800781 204.382812 192.011719 C 204.050781 191.953125 203.726562 191.90625 203.394531 191.847656 C 203.46875 191.699219 203.546875 191.546875 203.738281 191.394531 Z M 203.738281 191.394531 " fill-opacity="1" fill-rule="nonzero"/><path fill="#000000" d="M 413.40625 91.589844 C 413.625 91.429688 413.890625 91.316406 414.167969 91.210938 C 414.195312 91.304688 414.234375 91.402344 414.261719 91.503906 C 413.996094 91.554688 413.730469 91.601562 413.40625 91.589844 Z M 413.40625 91.589844 " fill-opacity="1" fill-rule="nonzero"/><path fill="#000000" d="M 205.628906 249.234375 C 205.449219 249.175781 205.335938 249.070312 205.210938 248.957031 C 205.46875 248.898438 205.722656 248.84375 205.980469 248.785156 C 205.886719 248.917969 205.789062 249.042969 205.628906 249.234375 Z M 205.628906 249.234375 " fill-opacity="1" fill-rule="nonzero"/><path fill="#000000" d="M 316.902344 274.164062 C 316.96875 274.363281 316.914062 274.574219 316.863281 274.773438 C 316.730469 274.699219 316.609375 274.613281 316.476562 274.535156 C 316.578125 274.410156 316.683594 274.289062 316.902344 274.164062 Z M 316.902344 274.164062 " fill-opacity="1" fill-rule="nonzero"/><g clip-path="url(#e4ea2a6ed6)"><path fill="#000000" d="M 214.101562 347.027344 C 214.207031 346.855469 214.371094 346.742188 214.53125 346.625 C 214.597656 346.730469 214.664062 346.835938 214.730469 346.929688 C 214.550781 346.976562 214.351562 347.027344 214.101562 347.027344 Z M 214.101562 347.027344 " fill-opacity="1" fill-rule="nonzero"/></g><path fill="#000000" d="M 492.554688 304.253906 C 492.449219 304.425781 492.289062 304.539062 492.125 304.65625 C 492.058594 304.550781 491.992188 304.445312 491.925781 304.351562 C 492.109375 304.304688 492.296875 304.253906 492.554688 304.253906 Z M 492.554688 304.253906 " fill-opacity="1" fill-rule="nonzero"/><path fill="#000000" d="M 390.609375 112.914062 C 390.382812 112.839844 390.203125 112.703125 390.03125 112.570312 C 390.105469 112.496094 390.191406 112.410156 390.269531 112.332031 C 390.402344 112.515625 390.535156 112.6875 390.609375 112.914062 Z M 390.609375 112.914062 " fill-opacity="1" fill-rule="nonzero"/><path fill="#000000" d="M 532.984375 140.550781 C 532.773438 140.605469 532.632812 140.617188 532.480469 140.617188 C 532.5 140.519531 532.507812 140.332031 532.527344 140.332031 C 532.726562 140.3125 532.917969 140.332031 533.117188 140.339844 C 533.117188 140.339844 533.125 140.398438 533.117188 140.417969 C 533.097656 140.445312 533.070312 140.464844 532.984375 140.550781 Z M 532.984375 140.550781 " fill-opacity="1" fill-rule="nonzero"/><g clip-path="url(#0653b9facc)"><g clip-path="url(#6a4655647a)"><g clip-path="url(#42085985fd)"><g clip-path="url(#f83f896000)"><path fill="#2d9df9" d="M 489.507812 313.605469 C 494.113281 310.386719 493.511719 303.390625 488.425781 301.007812 C 484.773438 299.300781 483.203125 294.957031 484.914062 291.304688 C 487.292969 286.21875 483.277344 280.457031 477.679688 280.9375 C 473.664062 281.28125 470.128906 278.304688 469.785156 274.292969 C 469.304688 268.691406 462.945312 265.714844 458.339844 268.929688 C 455.035156 271.234375 450.484375 270.425781 448.179688 267.121094 C 444.964844 262.511719 437.96875 263.113281 435.585938 268.199219 C 433.875 271.851562 429.53125 273.421875 425.882812 271.714844 C 420.792969 269.332031 415.035156 273.347656 415.515625 278.945312 C 415.859375 282.960938 412.882812 286.496094 408.871094 286.839844 C 403.269531 287.320312 400.292969 293.679688 403.507812 298.289062 C 405.8125 301.59375 405.003906 306.140625 401.695312 308.449219 C 397.089844 311.660156 397.691406 318.65625 402.777344 321.042969 C 406.425781 322.75 408 327.09375 406.292969 330.746094 C 403.90625 335.832031 407.925781 341.589844 413.523438 341.109375 C 417.535156 340.765625 421.070312 343.742188 421.417969 347.757812 C 421.894531 353.355469 428.253906 356.332031 432.863281 353.121094 C 436.167969 350.8125 440.71875 351.621094 443.023438 354.925781 C 446.238281 359.535156 453.234375 358.9375 455.617188 353.847656 C 457.324219 350.199219 461.671875 348.625 465.320312 350.335938 C 470.40625 352.71875 476.164062 348.699219 475.6875 343.105469 C 475.339844 339.085938 478.316406 335.550781 482.335938 335.207031 C 487.929688 334.726562 490.910156 328.367188 487.695312 323.761719 C 485.390625 320.457031 486.199219 315.90625 489.507812 313.605469 " fill-opacity="1" fill-rule="nonzero"/></g></g></g></g><g clip-path="url(#79339e50b4)"><g clip-path="url(#1ffea8bfc7)"><g clip-path="url(#b3451b8a6a)"><g clip-path="url(#7f7fc783af)"><path fill="#ffffff" d="M 470.445312 296.613281 L 463.046875 290.386719 L 440.8125 316.792969 L 428.027344 306.027344 L 421.800781 313.425781 L 434.585938 324.1875 L 434.53125 324.253906 L 441.925781 330.480469 L 441.980469 330.417969 L 442.042969 330.472656 L 448.273438 323.074219 L 448.210938 323.019531 L 470.445312 296.613281 " fill-opacity="1" fill-rule="nonzero"/></g></g></g></g></svg>