<svg xmlns="http://www.w3.org/2000/svg" xmlns:xlink="http://www.w3.org/1999/xlink" width="500" zoomAndPan="magnify" viewBox="0 0 375 374.999991" height="500" preserveAspectRatio="xMidYMid meet" version="1.0"><defs><g/></defs><g fill="#ffffff" fill-opacity="1"><g transform="translate(50.604328, 187.403617)"><g><path d="M 43.609375 1.3125 C 38.335938 1.3125 33.484375 0.523438 29.046875 -1.046875 C 24.617188 -2.617188 20.796875 -4.847656 17.578125 -7.734375 C 14.359375 -10.628906 11.847656 -14.144531 10.046875 -18.28125 C 8.253906 -22.425781 7.359375 -27.0625 7.359375 -32.1875 C 7.359375 -38.34375 8.566406 -44.179688 10.984375 -49.703125 C 13.398438 -55.234375 16.734375 -60.125 20.984375 -64.375 C 25.234375 -68.625 30.195312 -71.992188 35.875 -74.484375 C 41.550781 -76.972656 47.644531 -78.21875 54.15625 -78.21875 C 61.550781 -78.21875 67.757812 -76.753906 72.78125 -73.828125 C 77.800781 -70.898438 81.847656 -66.90625 84.921875 -61.84375 L 70.96875 -52.078125 C 68.695312 -55.296875 66.132812 -57.859375 63.28125 -59.765625 C 60.425781 -61.671875 56.691406 -62.625 52.078125 -62.625 C 48.703125 -62.625 45.476562 -61.925781 42.40625 -60.53125 C 39.332031 -59.132812 36.550781 -57.191406 34.0625 -54.703125 C 31.269531 -51.921875 29.050781 -48.660156 27.40625 -44.921875 C 25.757812 -41.191406 24.9375 -37.164062 24.9375 -32.84375 C 24.9375 -30.0625 25.394531 -27.535156 26.3125 -25.265625 C 27.226562 -22.992188 28.523438 -21.035156 30.203125 -19.390625 C 31.890625 -17.742188 33.867188 -16.476562 36.140625 -15.59375 C 38.410156 -14.71875 40.9375 -14.28125 43.71875 -14.28125 C 47.457031 -14.28125 50.679688 -14.957031 53.390625 -16.3125 C 56.097656 -17.664062 58.878906 -19.515625 61.734375 -21.859375 L 72.734375 -10.4375 C 68.992188 -6.988281 64.816406 -4.164062 60.203125 -1.96875 C 55.585938 0.21875 50.054688 1.3125 43.609375 1.3125 Z M 43.609375 1.3125 "/></g></g></g><g fill="#ffffff" fill-opacity="1"><g transform="translate(130.36447, 187.403617)"><g><path d="M 21.96875 -76.90625 L 80.53125 -76.90625 L 76.359375 -61.515625 L 34.71875 -61.515625 L 30.328125 -45.15625 L 67.015625 -45.15625 L 62.953125 -29.765625 L 26.25 -29.765625 L 18.234375 0 L 1.3125 0 Z M 21.96875 -76.90625 "/></g></g></g><g fill="#ffffff" fill-opacity="1"><g transform="translate(50.604328, 265.289046)"><g><path d="M 35.59375 -77.453125 L 51.1875 -77.453125 L 84.15625 0 L 66.46875 0 L 59.4375 -17.25 L 26.921875 -17.25 L 19.890625 0 L 2.640625 0 Z M 53.390625 -32.1875 L 43.171875 -57.125 L 32.953125 -32.1875 Z M 53.390625 -32.1875 "/></g></g></g><g fill="#ffffff" fill-opacity="1"><g transform="translate(137.395667, 265.289046)"><g><path d="M 27.03125 1.09375 C 20.65625 1.09375 15.726562 -0.84375 12.25 -4.71875 C 8.769531 -8.601562 7.03125 -13.953125 7.03125 -20.765625 L 7.03125 -58.890625 L 23.734375 -58.890625 L 23.734375 -26.03125 C 23.734375 -22.082031 24.609375 -19.097656 26.359375 -17.078125 C 28.117188 -15.066406 30.613281 -14.0625 33.84375 -14.0625 C 37.0625 -14.0625 39.601562 -15.066406 41.46875 -17.078125 C 43.332031 -19.097656 44.265625 -22.082031 44.265625 -26.03125 L 44.265625 -58.890625 L 60.96875 -58.890625 L 60.96875 0 L 44.265625 0 L 44.265625 -8.34375 C 43.316406 -7.101562 42.273438 -5.914062 41.140625 -4.78125 C 40.003906 -3.644531 38.738281 -2.632812 37.34375 -1.75 C 35.957031 -0.875 34.421875 -0.179688 32.734375 0.328125 C 31.054688 0.835938 29.15625 1.09375 27.03125 1.09375 Z M 27.03125 1.09375 "/></g></g></g><g fill="#ffffff" fill-opacity="1"><g transform="translate(205.839977, 265.289046)"><g><path d="M 27.359375 0.984375 C 24.796875 0.984375 22.46875 0.707031 20.375 0.15625 C 18.289062 -0.382812 16.5 -1.347656 15 -2.734375 C 13.5 -4.128906 12.328125 -5.941406 11.484375 -8.171875 C 10.640625 -10.410156 10.21875 -13.253906 10.21875 -16.703125 L 10.21875 -44.609375 L 3.1875 -44.609375 L 3.1875 -58.890625 L 10.21875 -58.890625 L 10.21875 -73.9375 L 26.921875 -73.9375 L 26.921875 -58.890625 L 40.765625 -58.890625 L 40.765625 -44.609375 L 26.921875 -44.609375 L 26.921875 -19.4375 C 26.921875 -15.632812 28.710938 -13.734375 32.296875 -13.734375 C 35.222656 -13.734375 37.96875 -14.425781 40.53125 -15.8125 L 40.53125 -2.421875 C 38.78125 -1.390625 36.84375 -0.566406 34.71875 0.046875 C 32.59375 0.671875 30.140625 0.984375 27.359375 0.984375 Z M 27.359375 0.984375 "/></g></g></g><g fill="#ffffff" fill-opacity="1"><g transform="translate(251.432892, 265.289046)"><g><path d="M 36.359375 1.3125 C 31.816406 1.3125 27.601562 0.523438 23.71875 -1.046875 C 19.84375 -2.617188 16.492188 -4.773438 13.671875 -7.515625 C 10.859375 -10.265625 8.644531 -13.488281 7.03125 -17.1875 C 5.414062 -20.882812 4.609375 -24.859375 4.609375 -29.109375 L 4.609375 -29.328125 C 4.609375 -33.578125 5.414062 -37.550781 7.03125 -41.25 C 8.644531 -44.945312 10.878906 -48.1875 13.734375 -50.96875 C 16.585938 -53.757812 19.953125 -55.957031 23.828125 -57.5625 C 27.710938 -59.175781 31.960938 -59.984375 36.578125 -59.984375 C 41.117188 -59.984375 45.332031 -59.195312 49.21875 -57.625 C 53.101562 -56.050781 56.453125 -53.890625 59.265625 -51.140625 C 62.085938 -48.390625 64.300781 -45.164062 65.90625 -41.46875 C 67.519531 -37.769531 68.328125 -33.796875 68.328125 -29.546875 L 68.328125 -29.328125 C 68.328125 -25.078125 67.519531 -21.101562 65.90625 -17.40625 C 64.300781 -13.707031 62.070312 -10.46875 59.21875 -7.6875 C 56.363281 -4.90625 52.992188 -2.707031 49.109375 -1.09375 C 45.222656 0.507812 40.972656 1.3125 36.359375 1.3125 Z M 36.578125 -13.078125 C 38.992188 -13.078125 41.132812 -13.492188 43 -14.328125 C 44.875 -15.171875 46.46875 -16.328125 47.78125 -17.796875 C 49.101562 -19.265625 50.113281 -20.96875 50.8125 -22.90625 C 51.507812 -24.84375 51.859375 -26.910156 51.859375 -29.109375 L 51.859375 -29.328125 C 51.859375 -31.523438 51.488281 -33.59375 50.75 -35.53125 C 50.019531 -37.476562 48.957031 -39.203125 47.5625 -40.703125 C 46.175781 -42.203125 44.53125 -43.390625 42.625 -44.265625 C 40.71875 -45.148438 38.628906 -45.59375 36.359375 -45.59375 C 33.941406 -45.59375 31.800781 -45.171875 29.9375 -44.328125 C 28.070312 -43.484375 26.476562 -42.328125 25.15625 -40.859375 C 23.84375 -39.398438 22.835938 -37.695312 22.140625 -35.75 C 21.441406 -33.8125 21.09375 -31.742188 21.09375 -29.546875 L 21.09375 -29.328125 C 21.09375 -27.128906 21.457031 -25.0625 22.1875 -23.125 C 22.925781 -21.1875 23.988281 -19.460938 25.375 -17.953125 C 26.769531 -16.453125 28.398438 -15.265625 30.265625 -14.390625 C 32.128906 -13.515625 34.234375 -13.078125 36.578125 -13.078125 Z M 36.578125 -13.078125 "/></g></g></g></svg>