<svg xmlns="http://www.w3.org/2000/svg" xmlns:xlink="http://www.w3.org/1999/xlink" width="500" zoomAndPan="magnify" viewBox="0 0 375 374.999991" height="500" preserveAspectRatio="xMidYMid meet" version="1.0"><defs><g/></defs><g fill="#000000" fill-opacity="1"><g transform="translate(-2.618356, 229.499985)"><g><path d="M 9.875 -82.296875 L 27.984375 -82.296875 L 27.984375 -16.453125 L 69.015625 -16.453125 L 69.015625 0 L 9.875 0 Z M 9.875 -82.296875 "/></g></g></g><g fill="#000000" fill-opacity="1"><g transform="translate(58.989804, 229.499985)"><g><path d="M 38.921875 1.40625 C 34.054688 1.40625 29.546875 0.566406 25.390625 -1.109375 C 21.242188 -2.796875 17.660156 -5.109375 14.640625 -8.046875 C 11.617188 -10.992188 9.242188 -14.445312 7.515625 -18.40625 C 5.796875 -22.363281 4.9375 -26.613281 4.9375 -31.15625 L 4.9375 -31.390625 C 4.9375 -35.941406 5.796875 -40.195312 7.515625 -44.15625 C 9.242188 -48.113281 11.632812 -51.582031 14.6875 -54.5625 C 17.75 -57.539062 21.359375 -59.890625 25.515625 -61.609375 C 29.671875 -63.335938 34.21875 -64.203125 39.15625 -64.203125 C 44.007812 -64.203125 48.515625 -63.359375 52.671875 -61.671875 C 56.828125 -59.984375 60.410156 -57.671875 63.421875 -54.734375 C 66.441406 -51.796875 68.816406 -48.347656 70.546875 -44.390625 C 72.273438 -40.429688 73.140625 -36.175781 73.140625 -31.625 L 73.140625 -31.390625 C 73.140625 -26.847656 72.273438 -22.597656 70.546875 -18.640625 C 68.816406 -14.679688 66.421875 -11.210938 63.359375 -8.234375 C 60.304688 -5.253906 56.703125 -2.898438 52.546875 -1.171875 C 48.398438 0.546875 43.859375 1.40625 38.921875 1.40625 Z M 39.15625 -13.984375 C 41.738281 -13.984375 44.03125 -14.4375 46.03125 -15.34375 C 48.03125 -16.25 49.734375 -17.484375 51.140625 -19.046875 C 52.554688 -20.617188 53.632812 -22.441406 54.375 -24.515625 C 55.125 -26.585938 55.5 -28.800781 55.5 -31.15625 L 55.5 -31.390625 C 55.5 -33.742188 55.101562 -35.957031 54.3125 -38.03125 C 53.53125 -40.113281 52.394531 -41.957031 50.90625 -43.5625 C 49.414062 -45.164062 47.648438 -46.4375 45.609375 -47.375 C 43.578125 -48.320312 41.347656 -48.796875 38.921875 -48.796875 C 36.328125 -48.796875 34.03125 -48.34375 32.03125 -47.4375 C 30.039062 -46.539062 28.335938 -45.304688 26.921875 -43.734375 C 25.515625 -42.171875 24.4375 -40.347656 23.6875 -38.265625 C 22.945312 -36.191406 22.578125 -33.976562 22.578125 -31.625 L 22.578125 -31.390625 C 22.578125 -29.035156 22.96875 -26.820312 23.75 -24.75 C 24.53125 -22.675781 25.664062 -20.832031 27.15625 -19.21875 C 28.644531 -17.613281 30.390625 -16.335938 32.390625 -15.390625 C 34.390625 -14.453125 36.644531 -13.984375 39.15625 -13.984375 Z M 39.15625 -13.984375 "/></g></g></g><g fill="#000000" fill-opacity="1"><g transform="translate(127.064584, 229.499985)"><g><path d="M 8 -63.015625 L 25.859375 -63.015625 L 25.859375 -50.328125 C 27.671875 -54.640625 30.144531 -58.085938 33.28125 -60.671875 C 36.414062 -63.253906 40.644531 -64.429688 45.96875 -64.203125 L 45.96875 -45.5 L 45.03125 -45.5 C 39.070312 -45.5 34.382812 -43.695312 30.96875 -40.09375 C 27.5625 -36.488281 25.859375 -30.882812 25.859375 -23.28125 L 25.859375 0 L 8 0 Z M 8 -63.015625 "/></g></g></g><g fill="#000000" fill-opacity="1"><g transform="translate(163.276652, 229.499985)"><g><path d="M 25.859375 1.171875 C 22.890625 1.171875 20.085938 0.757812 17.453125 -0.0625 C 14.828125 -0.882812 12.535156 -2.117188 10.578125 -3.765625 C 8.617188 -5.410156 7.070312 -7.425781 5.9375 -9.8125 C 4.800781 -12.207031 4.234375 -14.972656 4.234375 -18.109375 L 4.234375 -18.34375 C 4.234375 -21.789062 4.859375 -24.769531 6.109375 -27.28125 C 7.367188 -29.789062 9.113281 -31.867188 11.34375 -33.515625 C 13.582031 -35.160156 16.25 -36.394531 19.34375 -37.21875 C 22.4375 -38.039062 25.863281 -38.453125 29.625 -38.453125 C 32.84375 -38.453125 35.644531 -38.210938 38.03125 -37.734375 C 40.425781 -37.265625 42.757812 -36.640625 45.03125 -35.859375 L 45.03125 -36.921875 C 45.03125 -40.679688 43.894531 -43.539062 41.625 -45.5 C 39.351562 -47.457031 35.984375 -48.4375 31.515625 -48.4375 C 28.066406 -48.4375 25.023438 -48.140625 22.390625 -47.546875 C 19.765625 -46.960938 17.003906 -46.125 14.109375 -45.03125 L 9.640625 -58.671875 C 13.085938 -60.160156 16.691406 -61.375 20.453125 -62.3125 C 24.222656 -63.257812 28.769531 -63.734375 34.09375 -63.734375 C 39.03125 -63.734375 43.242188 -63.125 46.734375 -61.90625 C 50.222656 -60.6875 53.101562 -58.941406 55.375 -56.671875 C 57.726562 -54.316406 59.453125 -51.4375 60.546875 -48.03125 C 61.648438 -44.625 62.203125 -40.800781 62.203125 -36.5625 L 62.203125 0 L 44.921875 0 L 44.921875 -6.8125 C 42.722656 -4.382812 40.09375 -2.445312 37.03125 -1 C 33.976562 0.445312 30.253906 1.171875 25.859375 1.171875 Z M 31.28125 -11.171875 C 35.507812 -11.171875 38.894531 -12.1875 41.4375 -14.21875 C 43.988281 -16.257812 45.265625 -18.925781 45.265625 -22.21875 L 45.265625 -25.390625 C 43.703125 -26.097656 41.957031 -26.664062 40.03125 -27.09375 C 38.113281 -27.53125 36.054688 -27.75 33.859375 -27.75 C 30.015625 -27.75 26.992188 -27.003906 24.796875 -25.515625 C 22.609375 -24.023438 21.515625 -21.867188 21.515625 -19.046875 L 21.515625 -18.8125 C 21.515625 -16.382812 22.414062 -14.503906 24.21875 -13.171875 C 26.019531 -11.835938 28.375 -11.171875 31.28125 -11.171875 Z M 31.28125 -11.171875 "/></g></g></g><g fill="#000000" fill-opacity="1"><g transform="translate(222.886085, 229.499985)"><g><path d="M 7.296875 -18.8125 L 26.34375 -18.8125 L 26.34375 0 L 7.296875 0 Z M 7.296875 -18.8125 "/></g></g></g><g fill="#000000" fill-opacity="1"><g transform="translate(244.166234, 229.499985)"><g><path d="M 37.75 1.40625 C 33.039062 1.40625 28.664062 0.546875 24.625 -1.171875 C 20.59375 -2.898438 17.125 -5.234375 14.21875 -8.171875 C 11.320312 -11.109375 9.050781 -14.554688 7.40625 -18.515625 C 5.757812 -22.472656 4.9375 -26.6875 4.9375 -31.15625 L 4.9375 -31.390625 C 4.9375 -35.859375 5.757812 -40.09375 7.40625 -44.09375 C 9.050781 -48.09375 11.320312 -51.582031 14.21875 -54.5625 C 17.125 -57.539062 20.59375 -59.890625 24.625 -61.609375 C 28.664062 -63.335938 33.117188 -64.203125 37.984375 -64.203125 C 43.929688 -64.203125 48.863281 -63.257812 52.78125 -61.375 C 56.707031 -59.488281 60.160156 -56.898438 63.140625 -53.609375 L 52.203125 -41.859375 C 50.160156 -43.972656 48.0625 -45.65625 45.90625 -46.90625 C 43.757812 -48.164062 41.078125 -48.796875 37.859375 -48.796875 C 35.585938 -48.796875 33.53125 -48.34375 31.6875 -47.4375 C 29.84375 -46.539062 28.234375 -45.304688 26.859375 -43.734375 C 25.492188 -42.171875 24.4375 -40.347656 23.6875 -38.265625 C 22.945312 -36.191406 22.578125 -33.976562 22.578125 -31.625 L 22.578125 -31.390625 C 22.578125 -28.960938 22.945312 -26.691406 23.6875 -24.578125 C 24.4375 -22.460938 25.515625 -20.617188 26.921875 -19.046875 C 28.335938 -17.484375 30.023438 -16.25 31.984375 -15.34375 C 33.941406 -14.4375 36.132812 -13.984375 38.5625 -13.984375 C 41.539062 -13.984375 44.144531 -14.59375 46.375 -15.8125 C 48.613281 -17.03125 50.832031 -18.65625 53.03125 -20.6875 L 63.484375 -10.109375 C 60.429688 -6.742188 56.945312 -3.984375 53.03125 -1.828125 C 49.113281 0.328125 44.019531 1.40625 37.75 1.40625 Z M 37.75 1.40625 "/></g></g></g><g fill="#000000" fill-opacity="1"><g transform="translate(299.542955, 229.499985)"><g><path d="M 38.921875 1.40625 C 34.054688 1.40625 29.546875 0.566406 25.390625 -1.109375 C 21.242188 -2.796875 17.660156 -5.109375 14.640625 -8.046875 C 11.617188 -10.992188 9.242188 -14.445312 7.515625 -18.40625 C 5.796875 -22.363281 4.9375 -26.613281 4.9375 -31.15625 L 4.9375 -31.390625 C 4.9375 -35.941406 5.796875 -40.195312 7.515625 -44.15625 C 9.242188 -48.113281 11.632812 -51.582031 14.6875 -54.5625 C 17.75 -57.539062 21.359375 -59.890625 25.515625 -61.609375 C 29.671875 -63.335938 34.21875 -64.203125 39.15625 -64.203125 C 44.007812 -64.203125 48.515625 -63.359375 52.671875 -61.671875 C 56.828125 -59.984375 60.410156 -57.671875 63.421875 -54.734375 C 66.441406 -51.796875 68.816406 -48.347656 70.546875 -44.390625 C 72.273438 -40.429688 73.140625 -36.175781 73.140625 -31.625 L 73.140625 -31.390625 C 73.140625 -26.847656 72.273438 -22.597656 70.546875 -18.640625 C 68.816406 -14.679688 66.421875 -11.210938 63.359375 -8.234375 C 60.304688 -5.253906 56.703125 -2.898438 52.546875 -1.171875 C 48.398438 0.546875 43.859375 1.40625 38.921875 1.40625 Z M 39.15625 -13.984375 C 41.738281 -13.984375 44.03125 -14.4375 46.03125 -15.34375 C 48.03125 -16.25 49.734375 -17.484375 51.140625 -19.046875 C 52.554688 -20.617188 53.632812 -22.441406 54.375 -24.515625 C 55.125 -26.585938 55.5 -28.800781 55.5 -31.15625 L 55.5 -31.390625 C 55.5 -33.742188 55.101562 -35.957031 54.3125 -38.03125 C 53.53125 -40.113281 52.394531 -41.957031 50.90625 -43.5625 C 49.414062 -45.164062 47.648438 -46.4375 45.609375 -47.375 C 43.578125 -48.320312 41.347656 -48.796875 38.921875 -48.796875 C 36.328125 -48.796875 34.03125 -48.34375 32.03125 -47.4375 C 30.039062 -46.539062 28.335938 -45.304688 26.921875 -43.734375 C 25.515625 -42.171875 24.4375 -40.347656 23.6875 -38.265625 C 22.945312 -36.191406 22.578125 -33.976562 22.578125 -31.625 L 22.578125 -31.390625 C 22.578125 -29.035156 22.96875 -26.820312 23.75 -24.75 C 24.53125 -22.675781 25.664062 -20.832031 27.15625 -19.21875 C 28.644531 -17.613281 30.390625 -16.335938 32.390625 -15.390625 C 34.390625 -14.453125 36.644531 -13.984375 39.15625 -13.984375 Z M 39.15625 -13.984375 "/></g></g></g></svg>