<svg xmlns="http://www.w3.org/2000/svg" xmlns:xlink="http://www.w3.org/1999/xlink" width="720" zoomAndPan="magnify" viewBox="0 0 540 72" height="96" preserveAspectRatio="xMidYMid meet" version="1.0"><defs><g/></defs><rect x="-54" width="648" fill="#ffffff" y="-7.2" height="86.4" fill-opacity="1"/><rect x="-54" width="648" fill="#ffffff" y="-7.2" height="86.4" fill-opacity="1"/><g fill="#000000" fill-opacity="1"><g transform="translate(-0.150879, 52.850197)"><g><path d="M 16.671875 0.5625 C 8.941406 0.5625 3.195312 -1.863281 -0.5625 -6.71875 L 5.984375 -12.265625 C 7.566406 -10.566406 9.242188 -9.273438 11.015625 -8.390625 C 12.785156 -7.503906 14.800781 -7.0625 17.0625 -7.0625 C 18.832031 -7.0625 20.28125 -7.4375 21.40625 -8.1875 C 22.539062 -8.945312 23.109375 -9.945312 23.109375 -11.1875 C 23.109375 -11.675781 23.003906 -12.117188 22.796875 -12.515625 C 22.585938 -12.910156 22.226562 -13.304688 21.71875 -13.703125 C 21.21875 -14.097656 20.53125 -14.507812 19.65625 -14.9375 C 18.789062 -15.375 17.703125 -15.859375 16.390625 -16.390625 C 15.109375 -16.910156 13.882812 -17.484375 12.71875 -18.109375 C 11.550781 -18.734375 10.515625 -19.46875 9.609375 -20.3125 C 8.703125 -21.15625 7.984375 -22.125 7.453125 -23.21875 C 6.929688 -24.3125 6.671875 -25.59375 6.671875 -27.0625 C 6.671875 -28.789062 6.976562 -30.367188 7.59375 -31.796875 C 8.21875 -33.234375 9.078125 -34.5 10.171875 -35.59375 C 11.597656 -37.019531 13.375 -38.128906 15.5 -38.921875 C 17.632812 -39.710938 19.925781 -40.109375 22.375 -40.109375 C 25.800781 -40.109375 28.703125 -39.582031 31.078125 -38.53125 C 33.453125 -37.476562 35.484375 -36.046875 37.171875 -34.234375 L 31.1875 -28.25 C 29.675781 -29.644531 28.195312 -30.695312 26.75 -31.40625 C 25.300781 -32.125 23.617188 -32.484375 21.703125 -32.484375 C 19.847656 -32.484375 18.421875 -32.054688 17.421875 -31.203125 C 16.429688 -30.359375 15.9375 -29.445312 15.9375 -28.46875 C 15.9375 -27.945312 16.046875 -27.488281 16.265625 -27.09375 C 16.492188 -26.695312 16.867188 -26.3125 17.390625 -25.9375 C 17.921875 -25.5625 18.628906 -25.164062 19.515625 -24.75 C 20.398438 -24.332031 21.519531 -23.84375 22.875 -23.28125 C 24.238281 -22.71875 25.492188 -22.113281 26.640625 -21.46875 C 27.785156 -20.832031 28.78125 -20.097656 29.625 -19.265625 C 30.476562 -18.441406 31.148438 -17.484375 31.640625 -16.390625 C 32.128906 -15.296875 32.375 -14.03125 32.375 -12.59375 C 32.375 -10.789062 32.050781 -9.171875 31.40625 -7.734375 C 30.769531 -6.304688 29.90625 -5.046875 28.8125 -3.953125 C 27.3125 -2.441406 25.503906 -1.3125 23.390625 -0.5625 C 21.285156 0.1875 19.046875 0.5625 16.671875 0.5625 Z M 16.671875 0.5625 "/></g></g></g><g fill="#000000" fill-opacity="1"><g transform="translate(35.780627, 52.850197)"><g><path d="M 16.953125 0.671875 C 14.691406 0.671875 12.664062 0.328125 10.875 -0.359375 C 9.082031 -1.054688 7.554688 -2.023438 6.296875 -3.265625 C 5.035156 -4.515625 4.066406 -5.992188 3.390625 -7.703125 C 2.710938 -9.421875 2.375 -11.296875 2.375 -13.328125 C 2.375 -15.628906 2.832031 -17.84375 3.75 -19.96875 C 4.675781 -22.101562 5.96875 -24 7.625 -25.65625 C 9.207031 -27.238281 11.039062 -28.5 13.125 -29.4375 C 15.21875 -30.375 17.472656 -30.84375 19.890625 -30.84375 C 22.148438 -30.84375 24.171875 -30.492188 25.953125 -29.796875 C 27.742188 -29.109375 29.269531 -28.140625 30.53125 -26.890625 C 31.800781 -25.648438 32.773438 -24.171875 33.453125 -22.453125 C 34.128906 -20.742188 34.46875 -18.875 34.46875 -16.84375 C 34.46875 -14.539062 34.003906 -12.320312 33.078125 -10.1875 C 32.160156 -8.0625 30.867188 -6.171875 29.203125 -4.515625 C 27.628906 -2.929688 25.796875 -1.671875 23.703125 -0.734375 C 21.609375 0.203125 19.359375 0.671875 16.953125 0.671875 Z M 17.34375 -6.671875 C 18.4375 -6.671875 19.441406 -6.882812 20.359375 -7.3125 C 21.285156 -7.75 22.109375 -8.328125 22.828125 -9.046875 C 23.878906 -10.054688 24.675781 -11.265625 25.21875 -12.671875 C 25.769531 -14.085938 26.046875 -15.398438 26.046875 -16.609375 C 26.046875 -18.867188 25.441406 -20.582031 24.234375 -21.75 C 23.035156 -22.914062 21.457031 -23.5 19.5 -23.5 C 18.40625 -23.5 17.394531 -23.28125 16.46875 -22.84375 C 15.539062 -22.414062 14.722656 -21.84375 14.015625 -21.125 C 12.960938 -20.113281 12.160156 -18.898438 11.609375 -17.484375 C 11.066406 -16.078125 10.796875 -14.769531 10.796875 -13.5625 C 10.796875 -11.300781 11.394531 -9.585938 12.59375 -8.421875 C 13.800781 -7.253906 15.382812 -6.671875 17.34375 -6.671875 Z M 17.34375 -6.671875 "/></g></g></g><g fill="#000000" fill-opacity="1"><g transform="translate(72.616067, 52.850197)"><g><path d="M 7.90625 -30.28125 L 16.5 -30.28125 L 15.65625 -27.125 C 16.738281 -28.101562 17.910156 -28.96875 19.171875 -29.71875 C 20.441406 -30.46875 21.921875 -30.84375 23.609375 -30.84375 C 25.679688 -30.84375 27.382812 -30.351562 28.71875 -29.375 C 30.0625 -28.394531 31.035156 -27.0625 31.640625 -25.375 C 32.960938 -26.988281 34.523438 -28.300781 36.328125 -29.3125 C 38.140625 -30.332031 40.191406 -30.84375 42.484375 -30.84375 C 45.203125 -30.84375 47.34375 -30.0625 48.90625 -28.5 C 50.46875 -26.9375 51.25 -24.78125 51.25 -22.03125 C 51.25 -21.164062 51.144531 -20.234375 50.9375 -19.234375 C 50.726562 -18.234375 50.492188 -17.242188 50.234375 -16.265625 L 45.875 0 L 37.296875 0 L 41.75 -16.609375 C 41.863281 -17.023438 41.957031 -17.488281 42.03125 -18 C 42.113281 -18.507812 42.15625 -18.953125 42.15625 -19.328125 C 42.15625 -21.804688 40.816406 -23.046875 38.140625 -23.046875 C 36.441406 -23.046875 35.066406 -22.488281 34.015625 -21.375 C 32.960938 -20.269531 32.191406 -18.8125 31.703125 -17 L 27.125 0 L 18.53125 0 L 23 -16.609375 C 23.113281 -17.023438 23.207031 -17.488281 23.28125 -18 C 23.351562 -18.507812 23.390625 -18.953125 23.390625 -19.328125 C 23.390625 -21.804688 22.050781 -23.046875 19.375 -23.046875 C 17.6875 -23.046875 16.3125 -22.488281 15.25 -21.375 C 14.195312 -20.269531 13.425781 -18.8125 12.9375 -17 L 8.359375 0 L -0.21875 0 Z M 7.90625 -30.28125 "/></g></g></g><g fill="#000000" fill-opacity="1"><g transform="translate(126.174357, 52.850197)"><g><path d="M 10.34375 -12.140625 C 10.488281 -10.335938 11.117188 -8.898438 12.234375 -7.828125 C 13.347656 -6.753906 15.03125 -6.21875 17.28125 -6.21875 C 18.414062 -6.21875 19.507812 -6.40625 20.5625 -6.78125 C 21.613281 -7.15625 22.765625 -7.773438 24.015625 -8.640625 L 27.96875 -3.328125 C 26.613281 -2.203125 24.984375 -1.253906 23.078125 -0.484375 C 21.179688 0.285156 18.929688 0.671875 16.328125 0.671875 C 14.140625 0.671875 12.179688 0.363281 10.453125 -0.25 C 8.722656 -0.875 7.253906 -1.757812 6.046875 -2.90625 C 4.835938 -4.0625 3.910156 -5.46875 3.265625 -7.125 C 2.628906 -8.78125 2.3125 -10.660156 2.3125 -12.765625 C 2.3125 -15.140625 2.789062 -17.457031 3.75 -19.71875 C 4.71875 -21.976562 6.066406 -23.972656 7.796875 -25.703125 C 9.378906 -27.285156 11.210938 -28.535156 13.296875 -29.453125 C 15.390625 -30.378906 17.71875 -30.84375 20.28125 -30.84375 C 22.238281 -30.84375 23.988281 -30.539062 25.53125 -29.9375 C 27.082031 -29.34375 28.382812 -28.515625 29.4375 -27.453125 C 30.488281 -26.398438 31.285156 -25.15625 31.828125 -23.71875 C 32.378906 -22.289062 32.65625 -20.734375 32.65625 -19.046875 C 32.65625 -17.953125 32.519531 -16.820312 32.25 -15.65625 C 31.988281 -14.488281 31.613281 -13.316406 31.125 -12.140625 Z M 13.5625 -21.40625 C 12.507812 -20.351562 11.695312 -19.054688 11.125 -17.515625 L 24.296875 -17.515625 C 24.484375 -18.148438 24.578125 -18.8125 24.578125 -19.5 C 24.578125 -20.738281 24.191406 -21.789062 23.421875 -22.65625 C 22.648438 -23.519531 21.378906 -23.953125 19.609375 -23.953125 C 18.398438 -23.953125 17.285156 -23.722656 16.265625 -23.265625 C 15.253906 -22.816406 14.351562 -22.195312 13.5625 -21.40625 Z M 13.5625 -21.40625 "/></g></g></g><g fill="#000000" fill-opacity="1"><g transform="translate(160.467481, 52.850197)"><g/></g></g><g fill="#000000" fill-opacity="1"><g transform="translate(177.416306, 52.850197)"><g><path d="M 16.953125 0.671875 C 14.691406 0.671875 12.664062 0.328125 10.875 -0.359375 C 9.082031 -1.054688 7.554688 -2.023438 6.296875 -3.265625 C 5.035156 -4.515625 4.066406 -5.992188 3.390625 -7.703125 C 2.710938 -9.421875 2.375 -11.296875 2.375 -13.328125 C 2.375 -15.628906 2.832031 -17.84375 3.75 -19.96875 C 4.675781 -22.101562 5.96875 -24 7.625 -25.65625 C 9.207031 -27.238281 11.039062 -28.5 13.125 -29.4375 C 15.21875 -30.375 17.472656 -30.84375 19.890625 -30.84375 C 22.148438 -30.84375 24.171875 -30.492188 25.953125 -29.796875 C 27.742188 -29.109375 29.269531 -28.140625 30.53125 -26.890625 C 31.800781 -25.648438 32.773438 -24.171875 33.453125 -22.453125 C 34.128906 -20.742188 34.46875 -18.875 34.46875 -16.84375 C 34.46875 -14.539062 34.003906 -12.320312 33.078125 -10.1875 C 32.160156 -8.0625 30.867188 -6.171875 29.203125 -4.515625 C 27.628906 -2.929688 25.796875 -1.671875 23.703125 -0.734375 C 21.609375 0.203125 19.359375 0.671875 16.953125 0.671875 Z M 17.34375 -6.671875 C 18.4375 -6.671875 19.441406 -6.882812 20.359375 -7.3125 C 21.285156 -7.75 22.109375 -8.328125 22.828125 -9.046875 C 23.878906 -10.054688 24.675781 -11.265625 25.21875 -12.671875 C 25.769531 -14.085938 26.046875 -15.398438 26.046875 -16.609375 C 26.046875 -18.867188 25.441406 -20.582031 24.234375 -21.75 C 23.035156 -22.914062 21.457031 -23.5 19.5 -23.5 C 18.40625 -23.5 17.394531 -23.28125 16.46875 -22.84375 C 15.539062 -22.414062 14.722656 -21.84375 14.015625 -21.125 C 12.960938 -20.113281 12.160156 -18.898438 11.609375 -17.484375 C 11.066406 -16.078125 10.796875 -14.769531 10.796875 -13.5625 C 10.796875 -11.300781 11.394531 -9.585938 12.59375 -8.421875 C 13.800781 -7.253906 15.382812 -6.671875 17.34375 -6.671875 Z M 17.34375 -6.671875 "/></g></g></g><g fill="#000000" fill-opacity="1"><g transform="translate(214.251746, 52.850197)"><g><path d="M 7.453125 -22.9375 L 3.90625 -22.9375 L 5.875 -30.28125 L 9.4375 -30.28125 L 9.71875 -31.46875 C 10.132812 -33.164062 10.640625 -34.566406 11.234375 -35.671875 C 11.835938 -36.785156 12.519531 -37.71875 13.28125 -38.46875 C 15.382812 -40.582031 18.320312 -41.640625 22.09375 -41.640625 C 23.300781 -41.640625 24.398438 -41.5625 25.390625 -41.40625 C 26.390625 -41.257812 27.25 -41.054688 27.96875 -40.796875 L 26.109375 -33.671875 C 25.535156 -33.898438 24.921875 -34.078125 24.265625 -34.203125 C 23.609375 -34.335938 22.976562 -34.40625 22.375 -34.40625 C 20.15625 -34.40625 18.742188 -33.3125 18.140625 -31.125 L 17.90625 -30.28125 L 25.203125 -30.28125 L 23.21875 -22.9375 L 16.046875 -22.9375 L 9.890625 0 L 1.296875 0 Z M 7.453125 -22.9375 "/></g></g></g><g fill="#000000" fill-opacity="1"><g transform="translate(237.471624, 52.850197)"><g/></g></g><g fill="#000000" fill-opacity="1"><g transform="translate(254.420461, 52.850197)"><g><path d="M 27.578125 -40.234375 C 30.285156 -40.234375 32.75 -39.789062 34.96875 -38.90625 C 37.195312 -38.019531 39.097656 -36.785156 40.671875 -35.203125 C 42.253906 -33.617188 43.476562 -31.757812 44.34375 -29.625 C 45.21875 -27.5 45.65625 -25.195312 45.65625 -22.71875 C 45.65625 -19.664062 45.050781 -16.707031 43.84375 -13.84375 C 42.632812 -10.976562 40.921875 -8.4375 38.703125 -6.21875 C 36.585938 -4.101562 34.117188 -2.425781 31.296875 -1.1875 C 28.472656 0.0507812 25.328125 0.671875 21.859375 0.671875 C 19.148438 0.671875 16.679688 0.226562 14.453125 -0.65625 C 12.234375 -1.539062 10.332031 -2.769531 8.75 -4.34375 C 7.175781 -5.925781 5.953125 -7.78125 5.078125 -9.90625 C 4.210938 -12.039062 3.78125 -14.351562 3.78125 -16.84375 C 3.78125 -19.882812 4.382812 -22.835938 5.59375 -25.703125 C 6.800781 -28.566406 8.515625 -31.109375 10.734375 -33.328125 C 12.847656 -35.441406 15.316406 -37.117188 18.140625 -38.359375 C 20.960938 -39.609375 24.109375 -40.234375 27.578125 -40.234375 Z M 22.875 -7.34375 C 24.726562 -7.34375 26.425781 -7.695312 27.96875 -8.40625 C 29.507812 -9.125 30.863281 -10.070312 32.03125 -11.25 C 33.46875 -12.675781 34.585938 -14.378906 35.390625 -16.359375 C 36.203125 -18.335938 36.609375 -20.265625 36.609375 -22.140625 C 36.609375 -23.609375 36.390625 -24.957031 35.953125 -26.1875 C 35.523438 -27.414062 34.882812 -28.476562 34.03125 -29.375 C 33.1875 -30.28125 32.132812 -30.976562 30.875 -31.46875 C 29.613281 -31.957031 28.175781 -32.203125 26.5625 -32.203125 C 24.707031 -32.203125 23.007812 -31.84375 21.46875 -31.125 C 19.925781 -30.414062 18.570312 -29.476562 17.40625 -28.3125 C 15.96875 -26.875 14.84375 -25.164062 14.03125 -23.1875 C 13.226562 -21.21875 12.828125 -19.289062 12.828125 -17.40625 C 12.828125 -15.9375 13.039062 -14.585938 13.46875 -13.359375 C 13.90625 -12.140625 14.546875 -11.078125 15.390625 -10.171875 C 16.242188 -9.265625 17.300781 -8.566406 18.5625 -8.078125 C 19.820312 -7.585938 21.257812 -7.34375 22.875 -7.34375 Z M 22.875 -7.34375 "/></g></g></g><g fill="#000000" fill-opacity="1"><g transform="translate(301.425189, 52.850197)"><g><path d="M 11.25 0.5625 C 8.53125 0.5625 6.359375 -0.21875 4.734375 -1.78125 C 3.117188 -3.34375 2.3125 -5.5 2.3125 -8.25 C 2.3125 -9.113281 2.414062 -10.046875 2.625 -11.046875 C 2.832031 -12.046875 3.066406 -13.035156 3.328125 -14.015625 L 7.6875 -30.28125 L 16.265625 -30.28125 L 11.8125 -13.671875 C 11.695312 -13.253906 11.597656 -12.789062 11.515625 -12.28125 C 11.441406 -11.78125 11.40625 -11.34375 11.40625 -10.96875 C 11.40625 -9.757812 11.769531 -8.832031 12.5 -8.1875 C 13.238281 -7.550781 14.269531 -7.234375 15.59375 -7.234375 C 17.289062 -7.234375 18.679688 -7.785156 19.765625 -8.890625 C 20.859375 -10.003906 21.648438 -11.46875 22.140625 -13.28125 L 26.71875 -30.28125 L 35.3125 -30.28125 L 27.171875 0 L 18.59375 0 L 19.4375 -3.15625 C 18.382812 -2.175781 17.175781 -1.3125 15.8125 -0.5625 C 14.457031 0.1875 12.9375 0.5625 11.25 0.5625 Z M 11.25 0.5625 "/></g></g></g><g fill="#000000" fill-opacity="1"><g transform="translate(336.509249, 52.850197)"><g><path d="M 7.90625 -30.28125 L 16.5 -30.28125 L 14.859375 -24.1875 C 16.398438 -26.445312 18.082031 -28.164062 19.90625 -29.34375 C 21.738281 -30.53125 23.898438 -31.03125 26.390625 -30.84375 L 23.953125 -21.859375 L 23.5 -21.859375 C 20.632812 -21.859375 18.15625 -20.992188 16.0625 -19.265625 C 13.976562 -17.535156 12.390625 -14.691406 11.296875 -10.734375 L 8.359375 0 L -0.21875 0 Z M 7.90625 -30.28125 "/></g></g></g><g fill="#000000" fill-opacity="1"><g transform="translate(360.181123, 52.850197)"><g/></g></g><g fill="#000000" fill-opacity="1"><g transform="translate(377.12996, 52.850197)"><g><path d="M 7.34375 -39.546875 L 16.390625 -39.546875 L 17.40625 -12.765625 L 33.328125 -39.65625 L 40.796875 -39.65625 L 42.59375 -12.765625 L 57.96875 -39.546875 L 67.796875 -39.546875 L 43.625 0.28125 L 35.53125 0.28125 L 33.625 -25.09375 L 18.140625 0.28125 L 10.171875 0.28125 Z M 7.34375 -39.546875 "/></g></g></g><g fill="#000000" fill-opacity="1"><g transform="translate(439.727628, 52.850197)"><g><path d="M 16.953125 0.671875 C 14.691406 0.671875 12.664062 0.328125 10.875 -0.359375 C 9.082031 -1.054688 7.554688 -2.023438 6.296875 -3.265625 C 5.035156 -4.515625 4.066406 -5.992188 3.390625 -7.703125 C 2.710938 -9.421875 2.375 -11.296875 2.375 -13.328125 C 2.375 -15.628906 2.832031 -17.84375 3.75 -19.96875 C 4.675781 -22.101562 5.96875 -24 7.625 -25.65625 C 9.207031 -27.238281 11.039062 -28.5 13.125 -29.4375 C 15.21875 -30.375 17.472656 -30.84375 19.890625 -30.84375 C 22.148438 -30.84375 24.171875 -30.492188 25.953125 -29.796875 C 27.742188 -29.109375 29.269531 -28.140625 30.53125 -26.890625 C 31.800781 -25.648438 32.773438 -24.171875 33.453125 -22.453125 C 34.128906 -20.742188 34.46875 -18.875 34.46875 -16.84375 C 34.46875 -14.539062 34.003906 -12.320312 33.078125 -10.1875 C 32.160156 -8.0625 30.867188 -6.171875 29.203125 -4.515625 C 27.628906 -2.929688 25.796875 -1.671875 23.703125 -0.734375 C 21.609375 0.203125 19.359375 0.671875 16.953125 0.671875 Z M 17.34375 -6.671875 C 18.4375 -6.671875 19.441406 -6.882812 20.359375 -7.3125 C 21.285156 -7.75 22.109375 -8.328125 22.828125 -9.046875 C 23.878906 -10.054688 24.675781 -11.265625 25.21875 -12.671875 C 25.769531 -14.085938 26.046875 -15.398438 26.046875 -16.609375 C 26.046875 -18.867188 25.441406 -20.582031 24.234375 -21.75 C 23.035156 -22.914062 21.457031 -23.5 19.5 -23.5 C 18.40625 -23.5 17.394531 -23.28125 16.46875 -22.84375 C 15.539062 -22.414062 14.722656 -21.84375 14.015625 -21.125 C 12.960938 -20.113281 12.160156 -18.898438 11.609375 -17.484375 C 11.066406 -16.078125 10.796875 -14.769531 10.796875 -13.5625 C 10.796875 -11.300781 11.394531 -9.585938 12.59375 -8.421875 C 13.800781 -7.253906 15.382812 -6.671875 17.34375 -6.671875 Z M 17.34375 -6.671875 "/></g></g></g><g fill="#000000" fill-opacity="1"><g transform="translate(476.563092, 52.850197)"><g><path d="M 7.90625 -30.28125 L 16.5 -30.28125 L 14.859375 -24.1875 C 16.398438 -26.445312 18.082031 -28.164062 19.90625 -29.34375 C 21.738281 -30.53125 23.898438 -31.03125 26.390625 -30.84375 L 23.953125 -21.859375 L 23.5 -21.859375 C 20.632812 -21.859375 18.15625 -20.992188 16.0625 -19.265625 C 13.976562 -17.535156 12.390625 -14.691406 11.296875 -10.734375 L 8.359375 0 L -0.21875 0 Z M 7.90625 -30.28125 "/></g></g></g><g fill="#000000" fill-opacity="1"><g transform="translate(500.234966, 52.850197)"><g><path d="M 10.84375 -41.25 L 19.4375 -41.25 L 13.671875 -19.890625 L 25.9375 -30.28125 L 37.125 -30.28125 L 22.484375 -18.46875 L 29.09375 0 L 19.5 0 L 15.203125 -12.828125 L 10.84375 -9.328125 L 8.359375 0 L -0.21875 0 Z M 10.84375 -41.25 "/></g></g></g></svg>